<svg xmlns="http://www.w3.org/2000/svg" width="830.403" height="257.593" viewBox="0 0 830.403 257.593">
    <defs>
        <style>
            .cls-1,.cls-7{fill:none;stroke-miterlimit:10}.cls-1{stroke:#fff}.cls-2{fill:#283164}.cls-3{fill:#fff}.cls-4{fill:#ffce76}.cls-5{fill:#faa68b}.cls-6{fill:#efbd63}.cls-7{stroke:#121b46}.cls-8{fill:#222b57}.cls-9{opacity:.3}.cls-10{fill:#d93c3b}.cls-11{fill:#ea504f}.cls-12,.cls-18{opacity:.2}.cls-13{fill:#fa7c55}.cls-14{fill:#121b46}.cls-15{fill:#f7bb8b}.cls-16{fill:#edf9ff}.cls-17{fill:#de977b}.cls-18{fill:#c4533a}.cls-19{fill:#450d20}.cls-20{fill:#ed8d5d}.cls-21{fill:#e6794e}.cls-22{fill:#d17558}
        </style>
    </defs>
    <g id="illustration_1" transform="translate(0 .5)">
        <g id="Group_161" data-name="Group 161" transform="translate(148.611 141.019)">
            <g id="Group_154" data-name="Group 154" transform="translate(38.607)">
                <g id="Group_152" data-name="Group 152">
                    <path id="Path_189" d="M117.984 319.188c-.4-.054 4.143-.592 6.355-.849a17.2 17.2 0 0 0-.1-2.356l-8.467-.517 7.751-2.817a15.41 15.41 0 0 0-1.5-3.264c-1.393-2.271-3.379-4.289-3.94-6.894-.64-2.974.734-5.989 2.252-8.625s3.266-5.313 3.462-8.349a11.066 11.066 0 0 0-1.095-5.243c-1.873-.031-4.159-.039-5.382.072-.54.222-.885.326-.87.216s.343-.169.87-.216c1.03-.424 2.793-1.3 4.327-2.081-.3-.506-.62-1-.952-1.484-1.793-2.59-3.925-4.981-5.251-7.838-1.334-2.873-1.8-6.116-3.371-8.868s-4.891-4.979-7.825-3.787c-2.761 1.122-3.695 4.578-3.684 7.558 0 .461.017.927.037 1.393l4.088 2.034-4-.086a12.433 12.433 0 0 1-.747 5.495c-1.385 3.154-4.809 5.006-6.345 8.09-1.913 3.841-.424 8.472 1.494 12.311.613 1.226 1.268 2.459 1.879 3.707l6.682 1.37-5.612 1.011a14.609 14.609 0 0 1 1.22 5.932c-.192 5.725-4.87 10.472-5.463 16.169-.016.153-.015.3-.026.447l7.88-.376-7.8 3.271c1.7 12.067 20.755 11.946 27.348 3.107a16.193 16.193 0 0 0 3.007-7.562c-2.093-.329-5.84-.92-6.222-.971z" class="cls-1" data-name="Path 189" transform="translate(-92.7 -255.961)"/>
                </g>
                <g id="Group_153" data-name="Group 153" transform="translate(13.556 2.881)">
                    <path id="Path_190" d="M116.8 350.807h-.027a.67.67 0 0 1-.643-.695c.991-25.444-3.137-88.5-3.179-89.135a.67.67 0 0 1 1.337-.087c.042.634 4.174 63.76 3.18 89.274a.669.669 0 0 1-.668.643z" class="cls-2" data-name="Path 190" transform="translate(-112.95 -260.264)"/>
                </g>
            </g>
            <g id="Group_158" data-name="Group 158" transform="translate(0 14.712)">
                <g id="Group_156" data-name="Group 156">
                    <g id="Group_155" data-name="Group 155">
                        <path id="Path_191" d="M82.83 313.8c1.368-2.236 2.774-4.449 4.091-6.712a21.972 21.972 0 0 0-4.566-3.043c-2.439-1.273-5.379-1.932-7.187-4.044-3.277-3.831-2.338-9.155-5.028-13.333-1.19-1.847-3.306-2.741-5.307-3.5-.779 1.374-1.495 2.743-2.295 4.09.234-1.493.42-2.991.619-4.489a27.56 27.56 0 0 0-2.2-.323c-3.495-.338-7.161-.091-10.557-.905-2.83-.678-5.184-2.411-7.9-3.2s-5.785-.6-7.077 2.178c-1.078 2.314.245 4.825 1.787 6.49s3.7 2.423 5.317 3.908a12.436 12.436 0 0 1 3.215 5.187c2.126-.466 4.247-.975 6.376-1.439-1.9 1.241-3.8 2.42-5.741 3.629 1 3.077 1.548 6.015 4.137 8.224 2.792 2.383 6.61 2.329 9.739 4.361 3.712 2.411 5.366 6.263 6.5 10.489.092.344.161.706.238 1.044 1.279-.272 2.556-.56 3.841-.807-1.174.8-2.337 1.608-3.519 2.4.706 3.414 1.328 6.707 2.956 9.815a16.949 16.949 0 0 0 2.992 3.725c1.717-.926 3.439-1.807 5.167-2.7-1.1 1.4-2.186 2.794-3.3 4.205a15.619 15.619 0 0 0 2.587 1.465c2.754.924 6.314 2.747 9.309 1.564 6.984-2.759 8.172-12.388 7.79-18.891-.325-5.544-2.587-9.206-5.474-13.584-2.216 1.396-4.364 2.748-6.51 4.196z" class="cls-3" data-name="Path 191" transform="translate(-35.03 -277.937)"/>
                    </g>
                </g>
                <g id="Group_157" data-name="Group 157" transform="translate(1.118 1.558)">
                    <path id="Path_192" d="M89.754 358.758a.67.67 0 0 1-.668-.639c-.01-.225-1.175-22.739-15.642-47.728-14.385-24.847-35.968-28.76-36.184-28.8a.669.669 0 0 1 .222-1.32c.222.037 22.405 4.028 37.121 29.446 14.641 25.288 15.811 48.111 15.821 48.339a.669.669 0 0 1-.639.7z" class="cls-2" data-name="Path 192" transform="translate(-36.701 -280.265)"/>
                </g>
            </g>
            <g id="Group_160" data-name="Group 160" transform="translate(37.266 87.957)">
                <g id="Group_159" data-name="Group 159">
                    <path id="Path_193" d="M90.7 387.348s-.6 28.227 17.517 28.117c18.41-.112 16.513-28.117 16.513-28.117z" class="cls-4" data-name="Path 193" transform="translate(-90.698 -387.348)"/>
                </g>
            </g>
        </g>
        <g id="Group_195" data-name="Group 195" transform="translate(250.635 49.147)">
            <g id="Group_167" data-name="Group 167" transform="translate(1.835 85.325)">
                <g id="Group_165" data-name="Group 165" transform="translate(4.625 63.877)">
                    <g id="Group_162" data-name="Group 162" transform="translate(12.78)">
                        <path id="Path_194" d="M180.81 341.6l.629 52.028 3.412 3.7 7.082-3.971c1.627-12.61 4.615-33.088 6.982-51.761z" class="cls-5" data-name="Path 194" transform="translate(-177.482 -341.597)"/>
                        <path id="Path_195" d="M177.51 416.193a.249.249 0 0 0-.417.127c-.2.836-.644 2.715-1.142 4.515-.526 1.9.935 3.375 1.579 3.917a.963.963 0 0 0 .631.224l27.038-.02s1.213-1.859-7.518-3.958-5.413-4.639-8.116-4.276-6.1 4.046-8.722 2.172a29.037 29.037 0 0 1-3.333-2.701z" class="cls-6" data-name="Path 195" transform="translate(-175.839 -366.231)"/>
                    </g>
                    <g id="Group_164" data-name="Group 164">
                        <g id="Group_163" data-name="Group 163">
                            <path id="Path_196" d="M156.748 341.6c1.968 19.31 4.343 40.569 5.71 53.1l6.181 3.25 6.713-4.228.16-52.117z" class="cls-5" data-name="Path 196" transform="translate(-156.748 -341.597)"/>
                            <path id="Line_96" d="M0 40.167L.167 0" class="cls-7" data-name="Line 96" transform="translate(18.642 10.014)"/>
                        </g>
                        <path id="Path_197" d="M164.343 416.193a.249.249 0 0 0-.417.127c-.2.836-.643 2.715-1.142 4.515-.526 1.9.935 3.375 1.579 3.917a.96.96 0 0 0 .63.224l27.038-.02s1.214-1.859-7.518-3.958-5.413-4.639-8.116-4.276-6.1 4.046-8.722 2.172a29.165 29.165 0 0 1-3.332-2.701z" class="cls-4" data-name="Path 197" transform="translate(-158.706 -366.231)"/>
                    </g>
                </g>
                <g id="Group_166" data-name="Group 166">
                    <path id="Path_198" d="M156.872 246.18a44.005 44.005 0 0 0-7.029 22.594c-.167 12.887 4.854 48.535 4.854 48.535l1.342.374a58.107 58.107 0 0 0 32.466-.374s9.874-53.389-2.678-70.794z" class="cls-8" data-name="Path 198" transform="translate(-149.839 -246.18)"/>
                    <path id="Path_199" d="M155.888 265.93a77.648 77.648 0 0 0-.921 19.414c.921 9.958 4.017 37.908 4.017 37.908" class="cls-1" data-name="Path 199" transform="translate(-151.449 -252.708)"/>
                </g>
            </g>
            <g id="Group_182" data-name="Group 182" transform="translate(0 22.736)">
                <g id="Group_169" data-name="Group 169" transform="translate(31.32 9.627)">
                    <path id="Path_200" d="M237.787 171.071c-.4.151-1.141.683-2.368 2.4 0 0 1.628-4.175 1.3-4.915s-3.148 4.272-3.148 4.272 1.33-4.887.791-5.393-2.733 4.77-2.733 4.77 1.081-5.114.653-5.137c-1.064-.057-2.775 7.084-3.506 6.825-.647-.23-.938-2.019-.927-2.958a.306.306 0 0 0-.352-.317c-.389.052-.955.3-1.031 1.283a17.143 17.143 0 0 0 .677 6.69v.007l-1.12 2.172c.971.412 1.941.82 2.909 1.2 1.2.473 2.445 1.013 3.722 1.518.179-1.552.317-3.112.4-4.678 1.767-2.071 4.475-5.47 5.036-7.469a.22.22 0 0 0-.303-.27z" class="cls-5" data-name="Path 200" transform="translate(-204.506 -167.069)"/>
                    <g id="Group_168" data-name="Group 168" transform="translate(0 11.706)">
                        <path id="Path_201" d="M200.3 184.555s3.766 1.423 4.77 3.849 3.18 13.138 3.18 13.138l7.614-16.569 6.946 1.59s-1.255 19.163-8.367 32.134-16.067.251-17.406-4.351-3.933-23.1-2.929-24.937 6.192-4.854 6.192-4.854z" class="cls-4" data-name="Path 201" transform="translate(-193.883 -184.555)"/>
                    </g>
                </g>
                <g id="Group_175" data-name="Group 175" transform="translate(2.341)">
                    <g id="Group_170" data-name="Group 170" transform="translate(13)">
                        <path id="Path_202" d="M189.39 172.442a9.009 9.009 0 0 1-2.541-2.034c-.165-.6-.552-2.065-.844-3.725a17.451 17.451 0 0 1-.309-4.375v-.008a3.791 3.791 0 0 1 .432-1.575l-14.3-8.041c.011.048.015.091.027.139.226 1.326 1.946 11.722.187 17.252a9.424 9.424 0 0 1-2.03.672c3.7 5.058 6.009 10.938 9.77 15.99 2.05 2.753 4.713 5.71 8.467 5.123a7.7 7.7 0 0 0 1.031-.24 68.269 68.269 0 0 0 .427-9.04c.031-3.106-.669-6.816-.317-10.138z" class="cls-5" data-name="Path 202" transform="translate(-170.014 -152.688)"/>
                        <path id="Path_203" d="M188.048 169.324c-7.774.982-11.711-8.3-11.855-8.649a9.169 9.169 0 0 0 5.549 3.98 15.223 15.223 0 0 0 5.949.3c.016-.005.032-.005.048-.011a17.451 17.451 0 0 0 .309 4.38z" class="cls-9" data-name="Path 203" transform="translate(-172.056 -155.328)"/>
                    </g>
                    <g id="Group_174" data-name="Group 174" transform="translate(0 17.122)">
                        <path id="Path_204" d="M165.434 178.264l11.381 19.3 3.738-18.187s7.531 3.459 9.316 6.695 3.013 11.158 2.12 15.732-6.917 18.745-5.021 22.873 3.9 8.7 4.24 11.381H184.4l-2.678-4.24-2.008 4.351H150.6s7.587-16.179 7.922-18.3c.221-1.4-3.606-17.386-3.606-17.386s-1.413-6.392-1.526-7.829c-.335-4.24 2.343-11.6 4.128-12.5s7.916-1.89 7.916-1.89z" class="cls-4" data-name="Path 204" transform="translate(-150.595 -178.264)"/>
                        <g id="Group_173" data-name="Group 173" transform="translate(11.046)">
                            <path id="Path_205" d="M172.293 178.264l-.948 10.53 4.463 1.688-3.124 8.814 10.795 13.724 7.559-14.17-1.9-7.978 5.858-.725-7.629-11-3.7 18.421z" class="cls-2" data-name="Path 205" transform="translate(-168.499 -178.264)"/>
                            <g id="Group_172" data-name="Group 172">
                                <path id="Path_206" d="M170.888 178.264l3.885 3.4 6.673 5.835 4.561-8.577 7.085 4.254-4.407-.112-6.416 14.5-10.781-14.881-4.393 1.715z" class="cls-3" data-name="Path 206" transform="translate(-167.094 -178.264)"/>
                            </g>
                        </g>
                    </g>
                </g>
                <g id="Group_181" data-name="Group 181" transform="translate(0 19.095)">
                    <g id="Group_176" data-name="Group 176" transform="translate(19.107 6.908)">
                        <path id="Rectangle_80" d="M0 0h23.964v35.301H0z" class="cls-10" data-name="Rectangle 80" transform="rotate(10.333 3.166 35.015)"/>
                        <path id="Path_207" d="M199.9 231.4l-23.575-4.3 6.332-34.728 22.9 3.917.827.9z" class="cls-3" data-name="Path 207" transform="translate(-175.866 -191.809)"/>
                        <path id="Path_336" d="M0 0h23.964v35.3H0z" class="cls-11" data-name="Path 336" transform="rotate(10.333 -2.484 40.666)"/>
                        <path id="Path_208" d="M221.129 199.057l-.923-1.105-.217.183.782.861z" class="cls-10" data-name="Path 208" transform="translate(-190.299 -193.653)"/>
                    </g>
                    <g id="Group_180" data-name="Group 180">
                        <path id="Path_209" d="M158.3 244.1s9.232-2.538 11.492-3.96c0 0-5.579 7.391-13.11 7.5z" class="cls-9" data-name="Path 209" transform="translate(-150.265 -200.69)"/>
                        <g id="Group_179" data-name="Group 179">
                            <path id="Path_210" d="M209.4 211.1c.272-.761-5.222.937-5.222.937s4.326-2.634 4.283-3.372-5.265 1.584-5.265 1.584 4.3-2.97 4.007-3.281c-.734-.773-6.886 3.235-7.238 2.545-.313-.612.708-2.111 1.36-2.785a.307.307 0 0 0-.037-.473 1.2 1.2 0 0 0-1.631.223 17.182 17.182 0 0 0-4.118 5.36h-.015c-.295.106-2.42.852-5.745 2.01 0 .334 0 .669.015 1.006.118 2.445.333 4.91.613 7.343.025.224.06.446.088.669a79.419 79.419 0 0 0 7.938-6.7l-.011-.016c2.369-.213 7.964-.833 10.061-2.087a.22.22 0 0 0-.034-.4c-.393-.163-1.3-.289-3.37.115 0-.009 4.052-1.92 4.321-2.678z" class="cls-5" data-name="Path 210" transform="translate(-161.207 -189.415)"/>
                            <g id="Group_178" data-name="Group 178">
                                <path id="Path_211" d="M180.234 203.7l-18.912 6.443a75.42 75.42 0 0 0 1.99-12.418 6.7 6.7 0 0 1-3.149-2.182 4.277 4.277 0 0 1-.728-1.483 4.461 4.461 0 0 1-.331-.511c-.058-.106-.106-.214-.155-.321a3.328 3.328 0 0 1-4.7-2.11 8.794 8.794 0 0 1 3.766-9.471 7.118 7.118 0 0 0-1.773-.435s-4.874 3.661-6.381 8.681-5.188 28.117-.335 33.473 26.694-6.694 33.305-13.389z" class="cls-4" data-name="Path 211" transform="translate(-147.098 -181.212)"/>
                                <g id="Group_177" data-name="Group 177" transform="translate(8.617 2.74)">
                                    <path id="Path_212" d="M159.969 224.093l5.858-2.845 18.577-6.192" class="cls-7" data-name="Path 212" transform="translate(-159.969 -195.139)"/>
                                    <path id="Path_213" d="M161.1 217.186l5 .672s1.867-9.374 1.615-12.052" class="cls-7" data-name="Path 213" transform="translate(-160.342 -192.081)"/>
                                    <path id="Path_214" d="M164.845 185.3s4.268 2.427 4.268 9.372" class="cls-7" data-name="Path 214" transform="translate(-161.581 -185.305)"/>
                                </g>
                            </g>
                        </g>
                    </g>
                </g>
            </g>
            <g id="Group_194" data-name="Group 194" transform="translate(11.918)">
                <g id="Group_193" data-name="Group 193" transform="translate(1.133 2.474)">
                    <path id="Path_215" d="M192.19 139.26a38.576 38.576 0 0 0-2.123-12.277c-1.867-4.8-10.671-6.67-16.807-1.334-2.852 2.478-3.45 6.972-3.279 11.075a2.209 2.209 0 0 0-.37-.151 2.555 2.555 0 0 0-2.878 1.8 3.384 3.384 0 0 0 .438 2.816 4.257 4.257 0 0 0 1.935 1.616 5.468 5.468 0 0 0 1.668.165 12.381 12.381 0 0 0 4.088 6.958 11.2 11.2 0 0 0 9.53 2.411c2.657-.55 6.589-2.252 7.566-5.01a6.989 6.989 0 0 0 .283-2.257c0-.176.005-.353.005-.528.019-1.704.013-3.486-.056-5.284z" class="cls-5" data-name="Path 215" transform="translate(-166.594 -122.421)"/>
                    <g id="Group_192" data-name="Group 192" transform="translate(1.126 8.149)">
                        <g id="Group_183" class="cls-12" data-name="Group 183" transform="translate(7.522 8.612)">
                            <path id="Path_216" d="M203.217 152.825a2.782 2.782 0 0 1-.7.09 2.727 2.727 0 0 1 0-5.453 2.838 2.838 0 0 1 .645.075c.071 1.798.076 3.58.055 5.288z" class="cls-13" data-name="Path 216" transform="translate(-186.215 -147.46)"/>
                            <path id="Path_217" d="M179.511 150.187a2.728 2.728 0 1 0 2.728-2.728 2.728 2.728 0 0 0-2.728 2.728z" class="cls-13" data-name="Path 217" transform="translate(-179.511 -147.459)"/>
                        </g>
                        <g id="Group_187" data-name="Group 187" transform="translate(12.008 3.787)">
                            <g id="Group_186" data-name="Group 186">
                                <g id="Group_184" data-name="Group 184" transform="translate(7.654)">
                                    <ellipse id="Ellipse_28" cx=".788" cy="1.613" class="cls-14" data-name="Ellipse 28" rx=".788" ry="1.613" transform="translate(0 .647)"/>
                                    <path id="Path_218" d="M200.372 140.388a2.312 2.312 0 0 1-.533.688 1.873 1.873 0 0 1-.825.426h-.013a.292.292 0 0 1-.131-.569.336.336 0 0 1 .077-.007 1.7 1.7 0 0 0 1.264-.64l.005-.007a.094.094 0 0 1 .155.1z" class="cls-14" data-name="Path 218" transform="translate(-197.976 -140.251)"/>
                                </g>
                                <g id="Group_185" data-name="Group 185">
                                    <path id="Path_219" d="M189.029 142.831c0 .891-.353 1.613-.788 1.613s-.788-.722-.788-1.613.353-1.613.788-1.613.788.722.788 1.613z" class="cls-14" data-name="Path 219" transform="translate(-186.623 -140.571)"/>
                                    <path id="Path_220" d="M186.384 140.291a1.7 1.7 0 0 0 1.264.64.291.291 0 1 1 .023.582.28.28 0 0 1-.075-.007h-.015a1.873 1.873 0 0 1-.825-.426 2.311 2.311 0 0 1-.533-.688.094.094 0 0 1 .155-.1z" class="cls-14" data-name="Path 220" transform="translate(-186.213 -140.251)"/>
                                </g>
                            </g>
                        </g>
                        <g id="Group_189" data-name="Group 189" transform="translate(14.08 10.927)">
                            <g id="Group_188" data-name="Group 188">
                                <path id="Path_221" d="M195.224 150.916a3.856 3.856 0 0 1-1.188 1.35 3.017 3.017 0 0 1-1.764.586 3.06 3.06 0 0 1-1.755-.606 5.813 5.813 0 0 1-.68-.605 11.943 11.943 0 0 1-.529-.725c.244.178.465.368.688.552.248.151.47.336.721.463a3.254 3.254 0 0 0 1.558.443 3.175 3.175 0 0 0 1.564-.422 6.793 6.793 0 0 0 1.385-1.036z" class="cls-14" data-name="Path 221" transform="translate(-189.308 -150.916)"/>
                                <path id="Path_222" d="M194.147 155.188a1.3 1.3 0 0 1-.829.281 1.359 1.359 0 0 1-.83-.281 4.32 4.32 0 0 0 .831.093 3.575 3.575 0 0 0 .828-.093z" class="cls-14" data-name="Path 222" transform="translate(-190.359 -152.328)"/>
                            </g>
                        </g>
                        <g id="Group_191" data-name="Group 191" transform="translate(10.575)">
                            <g id="Group_190" data-name="Group 190">
                                <path id="Path_223" d="M188.566 135.047a1.869 1.869 0 0 0-1.22-.452 3.775 3.775 0 0 0-1.3.184 3.17 3.17 0 0 0-1.145.656 3.332 3.332 0 0 0-.782 1 .377.377 0 0 0 .585.461l.032-.029a4.624 4.624 0 0 1 .778-.618 2.731 2.731 0 0 1 .859-.353 3.333 3.333 0 0 1 .931-.09 3.544 3.544 0 0 0 .995-.058l.1-.024a.394.394 0 0 0 .168-.679z" class="cls-14" data-name="Path 223" transform="translate(-184.071 -134.594)"/>
                                <path id="Path_224" d="M196.6 135.047a1.869 1.869 0 0 1 1.22-.452 3.771 3.771 0 0 1 1.3.184 3.164 3.164 0 0 1 1.145.656 3.333 3.333 0 0 1 .782 1 .377.377 0 0 1-.585.461l-.031-.029a4.629 4.629 0 0 0-.779-.618 2.731 2.731 0 0 0-.859-.353 3.333 3.333 0 0 0-.931-.09 3.544 3.544 0 0 1-.995-.058l-.1-.024a.394.394 0 0 1-.168-.679z" class="cls-14" data-name="Path 224" transform="translate(-188.169 -134.594)"/>
                            </g>
                        </g>
                        <path id="Path_225" d="M193.314 139.946c.14.608.242 1.212.355 1.81s.226 1.191.4 1.756c.04.142.083.281.134.416a1.48 1.48 0 0 1 .137.52 1.049 1.049 0 0 1-.565.957 1.273 1.273 0 0 1-1.028.055 2.5 2.5 0 0 1-.815-.487c.566.213 1.226.378 1.624.078a.622.622 0 0 0 .28-.575 1.161 1.161 0 0 0-.118-.358q-.091-.226-.159-.455a8.568 8.568 0 0 1-.3-1.856 9.871 9.871 0 0 1 .055-1.861z" class="cls-14" data-name="Path 225" transform="translate(-176.093 -136.363)"/>
                        <path id="Path_226" d="M168.276 146.922a1.342 1.342 0 0 1 .42-1.068 1.251 1.251 0 0 1 1.216-.117 2.293 2.293 0 0 1 .983.717 3.679 3.679 0 0 1 .611 1.03.269.269 0 0 1-.441.29l-.017-.018a2.37 2.37 0 0 0-.9-.639.418.418 0 0 0-.38.042 1.011 1.011 0 0 0-.271.418c-.137.353-.22.767.082.931a2.02 2.02 0 0 0 1.194.082 1.88 1.88 0 0 1-1.311.176.739.739 0 0 1-.463-.619 1.925 1.925 0 0 1 .076-.714 1.346 1.346 0 0 1 .382-.659.905.905 0 0 1 .825-.171 2.6 2.6 0 0 1 1.176.791l-.459.272a2.88 2.88 0 0 0-1.238-1.55 1.007 1.007 0 0 0-.916-.056 1.346 1.346 0 0 0-.569.862z" class="cls-14" data-name="Path 226" transform="translate(-168.275 -138.244)"/>
                    </g>
                </g>
                <path id="Path_227" d="M192.927 130.243c.556-11.715-15.063-15.4-22.989-6.808-6.514 7.063-5.109 22.427-4.4 27.668a3.122 3.122 0 0 0 1.968 2.51 29.066 29.066 0 0 0 3.549 1.111 62.072 62.072 0 0 0-.871-12.974 5.3 5.3 0 0 1-1.639-.161 4.269 4.269 0 0 1-1.935-1.62 3.369 3.369 0 0 1-.434-2.818 2.543 2.543 0 0 1 2.872-1.8 1.882 1.882 0 0 1 .368.147v-.1c7.111 2.81 13.945-9.175 13.945-9.175s5.5 7.472 8.02 8.113c.121 1.231.2 2.468.25 3.7.074 1.8.08 3.582.054 5.289v.529a6.881 6.881 0 0 1-.287 2.256c-.958 2.7-4.734 4.392-7.385 4.974a17.227 17.227 0 0 0 .308 4.372c.021.1.033.2.054.295a55.178 55.178 0 0 0 8.891-1.185 237.237 237.237 0 0 1-.339-24.323z" class="cls-3" data-name="Path 227" transform="translate(-164.902 -118.725)"/>
            </g>
        </g>
        <g id="Group_224" data-name="Group 224" transform="translate(332.327 34.37)">
            <g id="Group_202" data-name="Group 202" transform="translate(0 89.357)">
                <g id="Group_197" data-name="Group 197" transform="translate(0 116.261)">
                    <g id="Group_196" data-name="Group 196" transform="translate(15.965)">
                        <path id="Path_228" d="M270.569 403.8c0 6.744.017 10.962.017 10.962l10.836 1.088 1.647-12.05z" class="cls-15" data-name="Path 228" transform="translate(-270.568 -403.796)"/>
                    </g>
                    <path id="Path_229" d="M261.562 417.005a19.571 19.571 0 0 1-4.333 3.124c-2.015.907-11.084.4-10.48 4.938h22.861l4.144.2s1.613-4.635.1-7.457c0 0-3.023 2.721-6.348 1.512s-5.944-2.317-5.944-2.317z" class="cls-14" data-name="Path 229" transform="translate(-246.72 -408.162)"/>
                </g>
                <g id="Group_199" data-name="Group 199" transform="translate(54.607 116.261)">
                    <g id="Group_198" data-name="Group 198">
                        <path id="Path_230" d="M328.29 403.8l1.487 11.381 10.572 1.144s.075-4.868.145-12.525z" class="cls-15" data-name="Path 230" transform="translate(-328.29 -403.796)"/>
                    </g>
                    <path id="Path_231" d="M342.1 417.005a19.578 19.578 0 0 0 4.333 3.124c2.016.907 11.085.4 10.48 4.938h-20.96l-1.219.2H329.9s-1.613-4.635-.1-7.457c0 0 3.023 2.721 6.348 1.512s5.952-2.317 5.952-2.317z" class="cls-14" data-name="Path 231" transform="translate(-328.577 -408.162)"/>
                </g>
                <g id="Group_201" data-name="Group 201" transform="translate(15.258)">
                    <path id="Path_232" d="M321.728 354.2h-12.72l-12.942-96.624-13.166 96.848h-13.389s.669-75.871 2.232-92.161 8.033-32.134 8.033-32.134H311.3s8.87 16.067 9.317 34.142l.446 18.075z" class="cls-8" data-name="Path 232" transform="translate(-269.511 -230.13)"/>
                    <g id="Group_200" data-name="Group 200" transform="translate(1.06 1.032)">
                        <path id="Path_233" d="M312.316 231.671v16.82l-3.1 9.623v-26.443" class="cls-1" data-name="Path 233" transform="translate(-283.697 -231.671)"/>
                        <path id="Path_234" d="M325.97 232.046s1 12.8 8.787 12.552" class="cls-1" data-name="Path 234" transform="translate(-289.234 -231.795)"/>
                        <path id="Path_235" d="M286.837 232.546S286 245.517 278.72 245.1" class="cls-1" data-name="Path 235" transform="translate(-273.615 -231.961)"/>
                        <path id="Line_101" d="M0 0h11.715" class="cls-1" data-name="Line 101" transform="translate(0 120.25)"/>
                        <path id="Line_102" d="M0 0h11.715" class="cls-1" data-name="Line 102" transform="translate(38.661 120.25)"/>
                    </g>
                </g>
            </g>
            <g id="Group_215" data-name="Group 215" transform="translate(8.325 25.657)">
                <g id="Group_207" data-name="Group 207" transform="translate(8.628)">
                    <path id="Path_236" d="M318.287 153.169a8.631 8.631 0 0 0-6.292-2.825 13.943 13.943 0 0 1-4.042-.722c-1-1.374-4.368-3.228-5.074-6.064a15.971 15.971 0 0 1-.222-3.813v-.005a3.79 3.79 0 0 1 .432-1.574l-6.237-3.188-6.569 2.1a7.465 7.465 0 0 1 .449 1.814 28.538 28.538 0 0 1-.089 4.422h-.009c-.564 2.975-4.073 4.893-5.1 6.307a13.943 13.943 0 0 1-4.042.722 8.632 8.632 0 0 0-6.292 2.825c-2.1 2.43-3.474 6.8-.979 14.334 4.32 13.054 7.618 23.028 7.555 28.926h29.932c-.062-5.9 3.235-15.872 7.555-28.926 2.498-7.538 1.125-11.902-.976-14.333zm-27.441-13.43l-.054-.442c.023.17.044.326.054.442z" class="cls-15" data-name="Path 236" transform="translate(-272.321 -134.977)"/>
                    <g id="Group_206" data-name="Group 206" transform="translate(0 10.8)">
                        <path id="Path_237" d="M280.6 201.84a10.835 10.835 0 0 0-.166 2.6 1.255 1.255 0 0 0 1.186 1.211c5.567.318 30.018 1.615 30.512-.066a8.329 8.329 0 0 0 .112-3.793 116.861 116.861 0 0 1 3.4-14.952c2.12-6.638 5.913-17.8 4.854-22.594a9.551 9.551 0 0 0-7.643-7.531 28.163 28.163 0 0 1-6.081-1.674s-7.364 4.073-9.986 4.408-10.488-4.408-10.488-4.408a25.718 25.718 0 0 1-4.742 1.506c-2.176.391-8.814 1.4-9.483 9.261-.591 6.946 6.733 29.2 8.456 34.315a3.041 3.041 0 0 1 .069 1.717z" class="cls-3" data-name="Path 237" transform="translate(-272.044 -152.41)"/>
                        <g id="Group_205" data-name="Group 205" transform="translate(11.02)">
                            <g id="Group_203" data-name="Group 203">
                                <path id="Path_238" d="M309.671 161.046l-3.138.031-3.138-.031-.921 4.226 2.636 3.975h2.845l2.636-3.975z" class="cls-11" data-name="Path 238" transform="translate(-293.123 -154.394)"/>
                                <path id="Path_239" d="M310.18 151.109l-7.7 5.607-.544-.039h-.042l-.544.039-7.7-5.607-5.146 3.515 7.029 5.732 5.356-1.967 1 1.808v.075l.021-.038.021.038v-.072l1-1.808 5.356 1.967 7.029-5.732z" class="cls-16" data-name="Path 239" transform="translate(-288.506 -151.109)"/>
                                <path id="Path_240" d="M305.109 170.8l-3.515 31.129 4.77 4.268 4.77-4.435-3.469-29.288z" class="cls-11" data-name="Path 240" transform="translate(-292.833 -157.617)"/>
                            </g>
                            <g id="Group_204" data-name="Group 204" transform="translate(.282 3.696)">
                                <path id="Path_241" d="M288.928 156.63l6.583 5.467 3.124-.948-2.845 2.231z" class="cls-14" data-name="Path 241" transform="translate(-288.928 -156.63)"/>
                                <path id="Path_242" d="M313.595 161.093l2.9 1.06 6.918-5.523-6.694 7.085z" class="cls-14" data-name="Path 242" transform="translate(-297.082 -156.63)"/>
                            </g>
                        </g>
                    </g>
                </g>
                <g id="Group_210" data-name="Group 210" transform="translate(20.799 15.844)">
                    <g id="Group_208" data-name="Group 208">
                        <path id="Path_243" d="M324.481 198.049a1.337 1.337 0 0 0-.161-.027c-11.253-1.781-23.391-5.108-34.1-11.253l1.238-3.568.569-1.556.208.02c1.386.12 9.439 1.061 19.755 1.9 2.51.208 5.148.422 7.853.636q-.582-1.757-1.131-3.394c-.141-.4-.274-.8-.408-1.192-.194-.569-.382-1.125-.569-1.654-.924-2.684-1.754-4.981-2.423-6.708a26.523 26.523 0 0 1-1.64-5.911 5.656 5.656 0 0 1 9.212-5.389 16.328 16.328 0 0 1 4.981 6.956c1.727 4.07 4.452 10.524 7.036 18.437.033.107.074.221.107.335a9.54 9.54 0 0 1-10.527 12.368z" class="cls-3" data-name="Path 243" transform="translate(-290.225 -158.645)"/>
                    </g>
                    <g id="Group_209" data-name="Group 209" transform="translate(11.74 10.924)">
                        <path id="Path_244" d="M327.428 174.963c.056.167 4.714 14.532 4.714 14.532l1.841-.586" class="cls-7" data-name="Path 244" transform="translate(-314.262 -174.963)"/>
                        <path id="Path_245" d="M307.761 206.565l10.99-4.519-8.647 5.467z" class="cls-9" data-name="Path 245" transform="translate(-307.761 -183.915)"/>
                        <path id="Line_103" d="M.586 1.172L0 0" class="cls-7" data-name="Line 103" transform="translate(17.88 14.533)"/>
                        <path id="Path_246" d="M315.261 211.546s8.48 1.953 12.274 3.013" class="cls-7" data-name="Path 246" transform="translate(-310.24 -187.055)"/>
                    </g>
                </g>
                <g id="Group_214" data-name="Group 214" transform="translate(0 15.845)">
                    <path id="Path_247" d="M286.206 190.736l-.558 1.524-5.737.509a10.445 10.445 0 0 1-6.554-1.567c-.422-.268-.7-.5-.723-.636-.141-.723 5.49.241 5.49.241s-4.9-1.821-4.693-2.2c.522-.931 7.471 1.439 7.645.683.147-.669-1.205-1.868-2.008-2.363a.308.308 0 0 1-.08-.469 1.2 1.2 0 0 1 1.64-.187 66.59 66.59 0 0 1 5.578 4.465z" class="cls-15" data-name="Path 247" transform="translate(-263.61 -167.705)"/>
                    <g id="Group_213" data-name="Group 213">
                        <g id="Group_211" data-name="Group 211">
                            <path id="Path_248" d="M302.727 187.707c2.468-1.139 4.782-2.316 6.849-3.5l-8.43-2.227-.106-.388-26.082 2.126c1.72-5.186 3.25-9.593 4.367-12.459a26.7 26.7 0 0 0 1.643-5.907 5.661 5.661 0 0 0-9.215-5.394 16.334 16.334 0 0 0-4.983 6.958c-1.723 4.072-4.45 10.528-7.032 18.435l-.108.332a9.541 9.541 0 0 0 10.536 12.365l.153-.024c9.049-1.428 21.993-5.519 32.287-10.259l.137-.007z" class="cls-3" data-name="Path 248" transform="translate(-259.156 -158.646)"/>
                            <path id="Path_249" d="M329.153 190.351c-.523.064-.864.043-.9-.117a1.436 1.436 0 0 1 .5-1.078 168.87 168.87 0 0 0-.571-1.654 16.766 16.766 0 0 0-4.73 3.827l-1.643.164 1.645 5.8 6.836-3.55c-.395-1.172-.769-2.303-1.137-3.392z" class="cls-15" data-name="Path 249" transform="translate(-279.864 -168.184)"/>
                        </g>
                        <g id="Group_212" data-name="Group 212" transform="translate(13.013 22.974)">
                            <path id="Path_250" d="M308.623 192.963l-26.164 2.12-.614 2.176" class="cls-7" data-name="Path 250" transform="translate(-279.669 -192.963)"/>
                            <path id="Line_104" d="M0 .865L2.789 0" class="cls-7" data-name="Line 104" transform="translate(0 2.12)"/>
                        </g>
                        <path id="Path_251" d="M282.511 214.257a73.533 73.533 0 0 0 13.389-3.794l-12.385 6.36z" class="cls-9" data-name="Path 251" transform="translate(-266.876 -175.774)"/>
                    </g>
                    <path id="Line_105" d="M0 9.763L3.403 0" class="cls-7" data-name="Line 105" transform="translate(17.811 8.971)"/>
                </g>
            </g>
            <g id="Group_223" data-name="Group 223" transform="translate(26.442)">
                <path id="Path_252" d="M315.24 113.4a2.555 2.555 0 0 0-2.869-1.806c.553-16.289-13.026-14.1-13.026-14.1-8.523.74-9.5 9.8-9.433 14.413a3.163 3.163 0 0 0-.678-.316 2.554 2.554 0 0 0-2.878 1.8 3.382 3.382 0 0 0 .438 2.816 4.258 4.258 0 0 0 1.935 1.617 5.531 5.531 0 0 0 1.488.174c1.318 10.646 10.964 9.6 10.964 9.6 8.363.414 10.534-5.427 11.023-9.644a3.792 3.792 0 0 0 .665-.129 4.254 4.254 0 0 0 1.935-1.617 3.382 3.382 0 0 0 .436-2.808z" class="cls-15" data-name="Path 252" transform="translate(-286.218 -96.898)"/>
                <path id="Path_253" d="M315.193 107.543c.084-1.841-2.218-8.787-8.033-10.293a19.74 19.74 0 0 0-9.621 0c-5.816 1.506-8.117 8.452-8.033 10.293a5.182 5.182 0 0 0 .436 1.736 12.2 12.2 0 0 1 1.011 4.563c.019 1.337.068 2.808.18 3.994.278 2.957 3.57 11.437 10.432 11.437s10.042-5.077 11.381-8.759a19.1 19.1 0 0 0 .809-6.166 12.927 12.927 0 0 1 1-5.07 5.189 5.189 0 0 0 .438-1.735zm-8.5 12.176s-.726-4.3-4.631-4.3-4.965 3.961-4.965 3.961c-1.794-.517-3.183-3.825-3.981-6.272a3.789 3.789 0 0 1 1.332-4.249l.031-.023c1.046-.753.167-1 .879-3.138a3.08 3.08 0 0 1 .139-.343 2.881 2.881 0 0 1 4.626-.6 3.313 3.313 0 0 0 .5.39 2.519 2.519 0 0 0 1.633.551H302.431a2.518 2.518 0 0 0 1.633-.551 3.281 3.281 0 0 0 .5-.39 2.881 2.881 0 0 1 4.626.6 2.964 2.964 0 0 1 .139.343c.711 2.134-.167 2.385.878 3.138.117.084.234.174.351.266a3.725 3.725 0 0 1 1.174 4.22 15.616 15.616 0 0 1-5.032 6.397z" class="cls-14" data-name="Path 253" transform="translate(-287.304 -96.652)"/>
                <g id="Group_222" data-name="Group 222" transform="translate(1.126 9.224)">
                    <g id="Group_219" data-name="Group 219" transform="translate(9.637 4.435)">
                        <g id="Group_218" data-name="Group 218">
                            <g id="Group_216" data-name="Group 216" transform="translate(6.824)">
                                <path id="Path_254" d="M312.488 118.668c0 .89.353 1.613.788 1.613s.788-.722.788-1.613-.353-1.613-.788-1.613-.788.722-.788 1.613z" class="cls-14" data-name="Path 254" transform="translate(-312.488 -117.055)"/>
                            </g>
                            <g id="Group_217" data-name="Group 217">
                                <path id="Path_255" d="M303.871 118.668c0 .89-.353 1.613-.788 1.613s-.788-.722-.788-1.613.353-1.613.788-1.613.788.722.788 1.613z" class="cls-14" data-name="Path 255" transform="translate(-302.295 -117.055)"/>
                            </g>
                        </g>
                    </g>
                    <g id="Group_221" data-name="Group 221" transform="translate(7.373)">
                        <g id="Group_220" data-name="Group 220">
                            <path id="Path_256" d="M303.408 110.884a1.869 1.869 0 0 0-1.22-.453 3.776 3.776 0 0 0-1.3.185 3.164 3.164 0 0 0-1.145.656 3.323 3.323 0 0 0-.782 1 .377.377 0 0 0 .585.461l.031-.029a4.63 4.63 0 0 1 .779-.618 2.733 2.733 0 0 1 .859-.353 3.334 3.334 0 0 1 .931-.09 3.57 3.57 0 0 0 .995-.058l.1-.024a.394.394 0 0 0 .168-.679z" class="cls-14" data-name="Path 256" transform="translate(-298.913 -110.43)"/>
                            <path id="Path_257" d="M311.444 110.884a1.869 1.869 0 0 1 1.22-.453 3.776 3.776 0 0 1 1.3.185 3.164 3.164 0 0 1 1.145.656 3.324 3.324 0 0 1 .782 1 .377.377 0 0 1-.585.461l-.031-.029a4.656 4.656 0 0 0-.779-.618 2.732 2.732 0 0 0-.859-.353 3.334 3.334 0 0 0-.931-.09 3.569 3.569 0 0 1-.995-.058l-.1-.024a.394.394 0 0 1-.168-.679z" class="cls-14" data-name="Path 257" transform="translate(-303.011 -110.43)"/>
                        </g>
                    </g>
                    <path id="Path_258" d="M308.156 115.783c.139.607.242 1.211.355 1.809s.226 1.192.4 1.757c.039.142.083.281.134.416a1.484 1.484 0 0 1 .137.521 1.049 1.049 0 0 1-.566.957 1.272 1.272 0 0 1-1.028.055 2.518 2.518 0 0 1-.814-.487c.566.213 1.226.378 1.624.078a.622.622 0 0 0 .28-.575 1.174 1.174 0 0 0-.118-.358q-.091-.226-.159-.455a8.567 8.567 0 0 1-.3-1.856 9.867 9.867 0 0 1 .055-1.862z" class="cls-14" data-name="Path 258" transform="translate(-294.137 -112.2)"/>
                    <path id="Path_259" d="M287.9 121.961a1.34 1.34 0 0 1 .42-1.067 1.247 1.247 0 0 1 1.216-.117 2.3 2.3 0 0 1 .983.716 3.672 3.672 0 0 1 .611 1.03.269.269 0 0 1-.441.289l-.017-.018a2.377 2.377 0 0 0-.9-.639.42.42 0 0 0-.38.042 1.01 1.01 0 0 0-.271.419c-.137.353-.22.767.082.931a2.025 2.025 0 0 0 1.194.081 1.873 1.873 0 0 1-1.311.176.737.737 0 0 1-.463-.618 1.923 1.923 0 0 1 .076-.714 1.347 1.347 0 0 1 .382-.659.9.9 0 0 1 .825-.17 2.6 2.6 0 0 1 1.176.791l-.459.271a2.884 2.884 0 0 0-1.238-1.55 1.012 1.012 0 0 0-.917-.056 1.349 1.349 0 0 0-.568.862z" class="cls-14" data-name="Path 259" transform="translate(-287.899 -113.816)"/>
                    <path id="Path_260" d="M327.014 121.961a1.34 1.34 0 0 0-.42-1.067 1.248 1.248 0 0 0-1.217-.117 2.3 2.3 0 0 0-.982.716 3.658 3.658 0 0 0-.611 1.03.269.269 0 0 0 .441.289l.018-.018a2.37 2.37 0 0 1 .9-.639.42.42 0 0 1 .38.042 1.009 1.009 0 0 1 .271.419c.137.353.22.767-.082.931a2.025 2.025 0 0 1-1.194.081 1.875 1.875 0 0 0 1.312.176.738.738 0 0 0 .463-.618 1.923 1.923 0 0 0-.076-.714 1.351 1.351 0 0 0-.382-.659.9.9 0 0 0-.825-.17 2.6 2.6 0 0 0-1.176.791l.459.271a2.884 2.884 0 0 1 1.238-1.55 1.013 1.013 0 0 1 .917-.056 1.347 1.347 0 0 1 .566.862z" class="cls-14" data-name="Path 260" transform="translate(-299.755 -113.816)"/>
                    <path id="Path_261" d="M304.511 127.046a5.854 5.854 0 0 0 5.133 0s-2.204 5.3-5.133 0z" class="cls-3" data-name="Path 261" transform="translate(-293.39 -115.923)"/>
                </g>
            </g>
        </g>
        <g id="Group_250" data-name="Group 250" transform="translate(436.092 42.799)">
            <g id="Group_230" data-name="Group 230" transform="translate(0 82.511)">
                <g id="Group_226" data-name="Group 226" transform="translate(0 69.288)">
                    <g id="Group_225" data-name="Group 225" transform="translate(15.162)">
                        <path id="Path_262" d="M407.9 336c-1.807 27.05-2.946 55.675-2.946 55.675l5.633 3.4 4.823-4.184L428.617 336z" class="cls-17" data-name="Path 262" transform="translate(-404.949 -335.996)"/>
                    </g>
                    <path id="Path_263" d="M408.178 417.079a.232.232 0 0 1 .389.118c.182.78.6 2.532 1.065 4.21.49 1.77-.872 3.148-1.472 3.654a.9.9 0 0 1-.588.209l-25.217-.019s-1.132-1.734 7.012-3.691 5.048-4.327 7.569-3.988 5.688 3.773 8.135 2.025a27.264 27.264 0 0 0 3.107-2.518z" class="cls-3" data-name="Path 263" transform="translate(-382.301 -362.776)"/>
                </g>
                <g id="Group_227" data-name="Group 227" transform="translate(46.594 69.288)">
                    <path id="Path_265" d="M451.9 336l1.78 54.895 4.386 4.184 5.933-3.4s3.885-28.625 6.826-55.675z" class="cls-17" data-name="Path 265" transform="translate(-451.902 -335.996)"/>
                    <path id="Path_266" d="M453.943 417.079a.232.232 0 0 0-.389.118c-.182.78-.6 2.532-1.065 4.21-.49 1.77.872 3.148 1.473 3.654a.9.9 0 0 0 .588.209l25.217-.019s1.132-1.734-7.011-3.691-5.048-4.327-7.57-3.988-5.688 3.773-8.135 2.025a27.327 27.327 0 0 1-3.108-2.518z" class="cls-3" data-name="Path 266" transform="translate(-452.061 -362.776)"/>
                </g>
                <g id="Group_229" data-name="Group 229" transform="translate(17.559)">
                    <path id="Path_268" d="M422.086 232.5s-8.368 16.736-10.376 31.8-3.18 44.184-3.18 44.184 27.28 12.217 48.033 0c0 0 9.038-59.246-1-75.815z" class="cls-4" data-name="Path 268" transform="translate(-408.53 -232.496)"/>
                    <g id="Group_228" data-name="Group 228" transform="translate(2.008 3.682)">
                        <path id="Path_271" d="M424.919 238s-8.7 20.251-9.874 32.3-3.515 39.33-3.515 39.33" class="cls-7" data-name="Path 271" transform="translate(-411.53 -237.996)"/>
                    </g>
                </g>
            </g>
            <g id="Group_238" data-name="Group 238" transform="translate(9.787 18.319)">
                <g id="Group_231" data-name="Group 231" transform="translate(48.739 21.306)">
                    <path id="Path_272" d="M479.933 237.951c-1.472 2.123-2.4 3.456-2.547 3.669a.086.086 0 0 0-.008.013 16.746 16.746 0 0 0-6.109 2.473 1.168 1.168 0 0 0-.635 1.474.3.3 0 0 0 .434.158c.8-.438 2.477-1.005 2.971-.553.557.511-4.812 5.248-4.276 6.138.215.357 4.127-2.909 4.127-2.909s-3.541 4.3-2.86 4.534 4.284-3.146 4.284-3.146-3.027 4.72-2.241 4.663 3.638-3.368 3.638-3.368c-.92 1.842-1.038 2.725-.987 3.137a.215.215 0 0 0 .372.137c1.724-1.643 3.766-6.743 4.582-8.912l.016.021a74.599 74.599 0 0 0 5.079-3.275c-1.95-1.414-3.927-2.791-5.84-4.254z" class="cls-17" data-name="Path 272" transform="translate(-469.726 -191.413)"/>
                    <path id="Path_273" d="M471.53 168.475s4.351-.669 11.046 3.347 23.6 19.581 23.263 25.439S483.58 222.2 483.58 222.2l-4.854-6.025 11.883-17.575-16.347-15.272z" class="cls-3" data-name="Path 273" transform="translate(-470.322 -168.434)"/>
                </g>
                <g id="Group_235" data-name="Group 235" transform="translate(15.72 9.517)">
                    <g id="Group_232" data-name="Group 232" transform="translate(15.687)">
                        <path id="Path_274" d="M456.854 159.738a17 17 0 0 1-.3-4.266v-.005a3.7 3.7 0 0 1 .422-1.534l-6.081-3.109-6.4 2.049a10.672 10.672 0 0 1 .55 2.594l-.128-1.054a25.747 25.747 0 0 1-.174 5.325 39.753 39.753 0 0 1-.9 3.907h13.918a39.988 39.988 0 0 1-.907-3.907z" class="cls-17" data-name="Path 274" transform="translate(-443.836 -150.824)"/>
                        <path id="Path_275" d="M445.44 156.185s4.14 2.915 11.782.227c0 0-5.975 8.693-11.782-.227z" class="cls-9" data-name="Path 275" transform="translate(-444.366 -152.596)"/>
                    </g>
                    <g id="Group_234" data-name="Group 234" transform="translate(0 10.324)">
                        <path id="Path_276" d="M426.122 207.919a32.183 32.183 0 0 0-.669 3.794c20.474 4.407 34.421 0 34.421 0s.447-.391 0-2.845 2.79-15.565 3.626-19.024.948-13.277.335-16.736-6.36-5.523-8.368-5.3-5.747-1.562-5.747-1.562c-6.248 5.523-13.222 0-13.222 0a17.669 17.669 0 0 1-7.642 1.841s-7.866 4.8-8.424 10.154 7.196 24.159 5.69 29.678z" class="cls-3" data-name="Path 276" transform="translate(-420.403 -166.246)"/>
                        <g id="Group_233" data-name="Group 233" transform="translate(5.831 .335)">
                            <path id="Path_277" d="M440.191 210.938c1.853 1.141 4.218.649 6.384.436a15.228 15.228 0 0 1 2.318-.069c1.662.09 3.282.535 4.93.758a8.14 8.14 0 0 0 4.878-.568" class="cls-7" data-name="Path 277" transform="translate(-432.775 -181.354)"/>
                            <path id="Path_278" d="M442.818 166.746s-3.96 5.8-1.45 7.587 8.424-3.57 8.368-3.4 3.291 5.411 6.638 4.965.167-9.149.167-9.149" class="cls-7" data-name="Path 278" transform="translate(-432.889 -166.746)"/>
                        </g>
                    </g>
                </g>
                <g id="Group_237" data-name="Group 237">
                    <path id="Path_281" d="M407.088 141.32a.3.3 0 0 0-.41.213c-.222.887-.937 2.5-1.6 2.56-.754.064-.6-7.093-1.623-7.3-.408-.084-.652 5.007-.652 5.007s-.768-5.518-1.4-5.174-.585 5.282-.585 5.282-1.425-5.424-1.914-4.806.015 4.957.015 4.957c-.732-1.923-1.3-2.609-1.641-2.849a.215.215 0 0 0-.352.18c.042 2.381 2.41 7.331 3.454 9.4h-.024a73.87 73.87 0 0 0-.54 2.784 50.847 50.847 0 0 0 5.9-1.311l-.287-1.291a16.677 16.677 0 0 0 2.316-6.185 1.167 1.167 0 0 0-.657-1.467z" class="cls-17" data-name="Path 281" transform="translate(-396.921 -136.608)"/>
                    <path id="Path_282" d="M400.887 156.886l6.192-.223 4.631 20.137s4.8-11.158 10.544-11.883-1.674 25.216-1.674 25.216-6.025 8.591-11.995 7.14-7.81-12.161-8.089-14.951.391-25.436.391-25.436z" class="cls-3" data-name="Path 282" transform="translate(-398.08 -143.237)"/>
                    <g id="Group_236" data-name="Group 236" transform="translate(12.402 33.453)">
                        <path id="Path_283" d="M415.446 188.922c.112-.223 1.283-2.343 1.283-2.343l.39 3.961" class="cls-7" data-name="Path 283" transform="translate(-415.446 -186.579)"/>
                    </g>
                </g>
            </g>
            <g id="Group_249" data-name="Group 249" transform="translate(31.536)">
                <g id="Group_248" data-name="Group 248" transform="translate(2.05 3.307)">
                    <path id="Path_285" d="M460.767 129.782a2.491 2.491 0 0 0-2.8-1.76c.538-15.881-12.7-13.742-12.7-13.742-8.31.721-9.258 9.554-9.2 14.052a3.114 3.114 0 0 0-.661-.309 2.491 2.491 0 0 0-2.806 1.759 3.3 3.3 0 0 0 .426 2.746 4.155 4.155 0 0 0 1.887 1.576 5.418 5.418 0 0 0 1.45.17c1.286 10.38 10.691 9.358 10.691 9.358 8.154.4 10.271-5.291 10.747-9.4a3.644 3.644 0 0 0 .648-.125 4.152 4.152 0 0 0 1.887-1.576 3.3 3.3 0 0 0 .431-2.749z" class="cls-17" data-name="Path 285" transform="translate(-432.471 -114.183)"/>
                    <g id="Group_247" data-name="Group 247" transform="translate(1.098 8.508)">
                        <g id="Group_239" data-name="Group 239" transform="translate(4.212 8.397)">
                            <path id="Path_286" d="M460.177 142.1a2.66 2.66 0 1 0 2.66-2.66 2.659 2.659 0 0 0-2.66 2.66z" class="cls-18" data-name="Path 286" transform="translate(-446.939 -139.435)"/>
                            <path id="Path_287" d="M440.4 142.1a2.66 2.66 0 1 0 2.66-2.66 2.66 2.66 0 0 0-2.66 2.66z" class="cls-18" data-name="Path 287" transform="translate(-440.402 -139.435)"/>
                        </g>
                        <g id="Group_243" data-name="Group 243" transform="translate(8.586 3.692)">
                            <g id="Group_242" data-name="Group 242">
                                <g id="Group_240" data-name="Group 240" transform="translate(7.463)">
                                    <path id="Path_288" d="M458.084 134.923c0 .869.344 1.573.768 1.573s.768-.7.768-1.573-.344-1.573-.768-1.573-.768.704-.768 1.573z" class="cls-14" data-name="Path 288" transform="translate(-458.084 -132.719)"/>
                                    <path id="Path_289" d="M460.742 132.541a2.262 2.262 0 0 1-.52.671 1.834 1.834 0 0 1-.8.416h-.013a.284.284 0 0 1-.127-.554.32.32 0 0 1 .075-.007 1.658 1.658 0 0 0 1.232-.624l.005-.006a.092.092 0 0 1 .152.1z" class="cls-14" data-name="Path 289" transform="translate(-458.406 -132.408)"/>
                                </g>
                                <g id="Group_241" data-name="Group 241">
                                    <path id="Path_290" d="M449.682 134.923c0 .869-.344 1.573-.768 1.573s-.769-.7-.769-1.573.344-1.573.769-1.573.768.704.768 1.573z" class="cls-14" data-name="Path 290" transform="translate(-447.336 -132.719)"/>
                                    <path id="Path_291" d="M447.1 132.446a1.658 1.658 0 0 0 1.232.624.284.284 0 0 1 .023.568.3.3 0 0 1-.074-.007h-.014a1.833 1.833 0 0 1-.8-.416 2.261 2.261 0 0 1-.52-.671.092.092 0 0 1 .152-.1z" class="cls-14" data-name="Path 291" transform="translate(-446.936 -132.407)"/>
                                </g>
                            </g>
                        </g>
                        <g id="Group_245" data-name="Group 245" transform="translate(10.607 10.654)">
                            <g id="Group_244" data-name="Group 244">
                                <path id="Path_292" d="M455.723 142.806a3.775 3.775 0 0 1-1.158 1.317 2.937 2.937 0 0 1-1.72.57 2.975 2.975 0 0 1-1.711-.59 5.64 5.64 0 0 1-.663-.59 10.949 10.949 0 0 1-.515-.707c.237.173.453.359.671.538.242.147.458.328.7.451a3.168 3.168 0 0 0 1.518.431 3.093 3.093 0 0 0 1.525-.412 6.629 6.629 0 0 0 1.353-1.008z" class="cls-14" data-name="Path 292" transform="translate(-449.955 -142.806)"/>
                                <path id="Path_293" d="M454.672 146.971a1.263 1.263 0 0 1-.809.274 1.322 1.322 0 0 1-.809-.274 4.153 4.153 0 0 0 .81.09 3.466 3.466 0 0 0 .808-.09z" class="cls-14" data-name="Path 293" transform="translate(-450.979 -144.183)"/>
                            </g>
                        </g>
                        <g id="Group_246" data-name="Group 246" transform="translate(7.189)">
                            <path id="Path_294" d="M449.231 127.334a1.82 1.82 0 0 0-1.19-.441 3.673 3.673 0 0 0-1.268.179 3.094 3.094 0 0 0-1.116.64 3.239 3.239 0 0 0-.762.977.368.368 0 0 0 .57.449l.031-.029a4.548 4.548 0 0 1 .758-.6 2.689 2.689 0 0 1 .837-.344 3.274 3.274 0 0 1 .908-.088 3.5 3.5 0 0 0 .97-.056l.1-.023a.386.386 0 0 0 .283-.465.38.38 0 0 0-.121-.199z" class="cls-19" data-name="Path 294" transform="translate(-444.849 -126.892)"/>
                            <path id="Path_295" d="M457.066 127.334a1.82 1.82 0 0 1 1.19-.441 3.67 3.67 0 0 1 1.268.179 3.094 3.094 0 0 1 1.116.64 3.228 3.228 0 0 1 .762.977.368.368 0 0 1-.57.449l-.031-.029a4.551 4.551 0 0 0-.759-.6 2.689 2.689 0 0 0-.837-.344 3.274 3.274 0 0 0-.908-.088 3.5 3.5 0 0 1-.97-.056l-.1-.023a.386.386 0 0 1-.283-.465.381.381 0 0 1 .122-.199z" class="cls-19" data-name="Path 295" transform="translate(-448.844 -126.892)"/>
                        </g>
                        <path id="Path_296" d="M453.861 132.11c.135.592.236 1.182.345 1.764s.22 1.161.386 1.712c.038.139.082.274.131.406a1.438 1.438 0 0 1 .133.507 1.022 1.022 0 0 1-.551.933 1.242 1.242 0 0 1-1 .054 2.45 2.45 0 0 1-.794-.475c.552.207 1.2.369 1.584.076a.607.607 0 0 0 .272-.561 1.141 1.141 0 0 0-.115-.349q-.089-.221-.156-.445a8.382 8.382 0 0 1-.289-1.809 9.549 9.549 0 0 1 .054-1.813z" class="cls-14" data-name="Path 296" transform="translate(-440.192 -128.617)"/>
                        <path id="Path_297" d="M434.111 138.134a1.308 1.308 0 0 1 .41-1.04 1.218 1.218 0 0 1 1.186-.114 2.242 2.242 0 0 1 .958.7 3.578 3.578 0 0 1 .6 1 .262.262 0 0 1-.43.283l-.017-.018a2.308 2.308 0 0 0-.88-.623.408.408 0 0 0-.37.041.986.986 0 0 0-.264.408c-.134.345-.215.748.079.908a1.972 1.972 0 0 0 1.164.079 1.832 1.832 0 0 1-1.279.172.722.722 0 0 1-.451-.6 1.858 1.858 0 0 1 .075-.7 1.308 1.308 0 0 1 .372-.643.882.882 0 0 1 .8-.166 2.525 2.525 0 0 1 1.146.771l-.447.264a2.809 2.809 0 0 0-1.207-1.511.985.985 0 0 0-.894-.054 1.311 1.311 0 0 0-.551.843z" class="cls-14" data-name="Path 297" transform="translate(-434.11 -130.193)"/>
                        <path id="Path_298" d="M472.248 138.134a1.308 1.308 0 0 0-.41-1.04 1.218 1.218 0 0 0-1.186-.114 2.242 2.242 0 0 0-.958.7 3.578 3.578 0 0 0-.6 1 .262.262 0 0 0 .43.283l.017-.018a2.308 2.308 0 0 1 .88-.623.407.407 0 0 1 .37.041.986.986 0 0 1 .264.408c.134.345.215.748-.079.908a1.972 1.972 0 0 1-1.164.079 1.832 1.832 0 0 0 1.279.172.722.722 0 0 0 .451-.6 1.856 1.856 0 0 0-.075-.7 1.308 1.308 0 0 0-.372-.643.882.882 0 0 0-.8-.166 2.525 2.525 0 0 0-1.146.771l.447.264a2.809 2.809 0 0 1 1.207-1.511.985.985 0 0 1 .894-.054 1.31 1.31 0 0 1 .551.843z" class="cls-14" data-name="Path 298" transform="translate(-445.669 -130.193)"/>
                    </g>
                </g>
                <path id="Path_299" d="M465.272 134.249c.221-2.684-1.5-5.108-3.227-7.176s-3.622-4.258-3.876-6.936c-.141-1.513.268-3.053-.027-4.546-.482-2.49-2.785-4.231-5.141-5.175a16.685 16.685 0 0 0-11.427-.315c-3.682 1.238-6.333 4.633-8.843 7.612a14.549 14.549 0 0 0-2.6 13.764 37.743 37.743 0 0 1 1.761 4.941 15.4 15.4 0 0 1-.388 5.918 19.907 19.907 0 0 0-.636 5.911 6.968 6.968 0 0 0 .228 1.218c.448-.154.736-.221.736-.221a17.668 17.668 0 0 0 7.645-1.841s.06.047.181.134c.107-.475.214-1 .308-1.546a26.369 26.369 0 0 0 .2-5.028.085.085 0 0 0-.007-.04 2.98 2.98 0 0 0-.033-.228c-2.169-1.232-4.224-3.588-4.78-8.06a5.083 5.083 0 0 1-1.439-.167 4.122 4.122 0 0 1-1.888-1.573 3.3 3.3 0 0 1-.428-2.745 2.5 2.5 0 0 1 2.8-1.761 3.124 3.124 0 0 1 .536.239c.108.24.2.485.324.72.245.483.6 1.016 1.146 1.043s.96-.481 1.246-.95a14.991 14.991 0 0 0 1.559-3.516c.274-.922.459-1.87.771-2.78a5.657 5.657 0 0 1 1.487-2.435 4.128 4.128 0 0 1 3.669-.856 3.008 3.008 0 0 0 .78 2.741 4.9 4.9 0 0 0 2.593 1.362 13.689 13.689 0 0 0 2.962.2 3.124 3.124 0 0 1 2.456.7 2.594 2.594 0 0 1 .408 2.043 7.005 7.005 0 0 0-.147 2.132c.089.485.434 1.007.927.989a1.341 1.341 0 0 0 .844-.515l1.09-1.129a2.505 2.505 0 0 1 2.706 1.771 3.3 3.3 0 0 1-.428 2.745 4.056 4.056 0 0 1-1.888 1.573 3.518 3.518 0 0 1-.649.12c-.321 2.865-1.453 6.5-4.867 8.3a5.107 5.107 0 0 0-.141.83v.007a17.271 17.271 0 0 0 .3 4.264c.107.589.221 1.151.328 1.654.094-.074.194-.154.288-.241 0 0 3.736 1.787 5.744 1.56a9.257 9.257 0 0 1 4.211 1.031 9.632 9.632 0 0 0-.147-1.466c-.321-1.881-.977-3.769-.71-5.664.444-3.082 3.235-5.499 3.483-8.612z" class="cls-19" data-name="Path 299" transform="translate(-429.408 -109.244)"/>
            </g>
        </g>
        <g id="Group_286" data-name="Group 286" transform="translate(551.072 46.684)">
            <g id="Group_252" data-name="Group 252" transform="translate(0 34.811)">
                <path id="Path_300" d="M593.783 167.046a18.435 18.435 0 0 1-4.351 2.4c-2.231.781-10.488 3.347-11.269 8.814s-3.069 55.174-3.069 55.174h14.728l5.523-63.6z" class="cls-11" data-name="Path 300" transform="translate(-547.009 -167.046)"/>
                <g id="Group_251" data-name="Group 251" transform="translate(0 4.937)">
                    <path id="Path_301" d="M546.441 225.006a19.044 19.044 0 0 0-7.219-1.865c-1.053-.08-1.409.445-1.528.825a.311.311 0 0 0 .276.4c.992.138 2.833.711 2.966 1.393.151.77-7.676 1.344-7.794 2.415-.048.43 5.534.163 5.534.163s-5.939 1.353-5.5 1.97 5.827.066 5.827.066-5.766 2.02-5.039 2.462 5.408-.52 5.408-.52c-2.02.951-2.707 1.609-2.933 1.981a.224.224 0 0 0 .234.345c2.634-.29 7.9-3.319 9.983-4.574q1.64.912 3.351 1.715v-6.972c-1.885.106-3.145.172-3.566.196z" class="cls-20" data-name="Path 301" transform="translate(-533.142 -190.523)"/>
                    <path id="Path_302" d="M554.521 208.563s-.335 7.28 0 8.033 20.669 6.527 26.862 4.017 8.2-29.037 7.531-33.64-7.364-12.552-8.87-12.552-7.364 1.339-8.619 6.862-2.176 26.694-2.176 26.694z" class="cls-11" data-name="Path 302" transform="translate(-540.159 -174.421)"/>
                </g>
            </g>
            <g id="Group_259" data-name="Group 259" transform="translate(7.486 86.861)">
                <g id="Group_254" data-name="Group 254" transform="translate(0 106.387)">
                    <g id="Group_253" data-name="Group 253" transform="translate(15.03)">
                        <path id="Path_303" d="M567.049 403.713a2062.32 2062.32 0 0 0-.274 10.954l7.689 1.877 4.183-2.144 2.2-10.688z" class="cls-20" data-name="Path 303" transform="translate(-566.775 -403.713)"/>
                    </g>
                    <path id="Path_304" d="M559.166 417.005a19.571 19.571 0 0 1-4.333 3.124c-2.015.907-11.084.4-10.48 4.938h22.117l.707.2h4.182s1.613-4.635.1-7.457c0 0-3.023 2.721-6.348 1.512s-5.945-2.317-5.945-2.317z" class="cls-14" data-name="Path 304" transform="translate(-544.324 -408.107)"/>
                </g>
                <g id="Group_256" data-name="Group 256" transform="translate(30.404 106.387)">
                    <g id="Group_255" data-name="Group 255" transform="translate(14.958)">
                        <path id="Path_305" d="M612.083 403.713l.349 10.287 6.911 2.99 4.56-2.856c.313-2.855.716-6.4 1.176-10.421z" class="cls-20" data-name="Path 305" transform="translate(-612.083 -403.713)"/>
                    </g>
                    <path id="Path_306" d="M604.582 417.005a19.578 19.578 0 0 1-4.333 3.124c-2.016.907-11.085.4-10.48 4.938h21.866l.958.2h4.182s1.612-4.635.1-7.457c0 0-3.023 2.721-6.348 1.512s-5.945-2.317-5.945-2.317z" class="cls-14" data-name="Path 306" transform="translate(-589.74 -408.107)"/>
                </g>
                <g id="Group_258" data-name="Group 258" transform="translate(14.356)">
                    <path id="Path_307" d="M577.7 244.8h38.661s3.515 15.063 2.678 26.109-9.372 87.7-9.372 87.7h-13.723l-1.506-78.493-14.728 77.817h-13.891s-1.506-85.69 11.881-113.133z" class="cls-8" data-name="Path 307" transform="translate(-565.768 -244.796)"/>
                    <g id="Group_257" data-name="Group 257" transform="translate(11.264 .837)">
                        <path id="Path_308" d="M600.265 246.046l-1 16.513 6.248 17.406v-20.083" class="cls-1" data-name="Path 308" transform="translate(-588.104 -246.046)"/>
                        <path id="Path_309" d="M635.9 266.88s.892 9.372.446 14.17-7.587 83.681-7.587 83.681" class="cls-1" data-name="Path 309" transform="translate(-597.855 -252.933)"/>
                        <path id="Line_106" d="M14.17 0L0 85.913" class="cls-1" data-name="Line 106" transform="translate(0 25.328)"/>
                    </g>
                </g>
            </g>
            <g id="Group_274" data-name="Group 274" transform="translate(.106 22.028)">
                <g id="Group_262" data-name="Group 262" transform="translate(31.039)">
                    <g id="Group_260" data-name="Group 260" transform="translate(14.124)">
                        <path id="Path_310" d="M615.864 165.953c-2.107-5.336-.262-16.487-.027-17.864.011-.048.016-.091.027-.139l-14.3 8.041a3.779 3.779 0 0 1 .432 1.574v.005a17.382 17.382 0 0 1-.309 4.375 40.909 40.909 0 0 1-.923 4.007z" class="cls-20" data-name="Path 310" transform="translate(-600.764 -147.951)"/>
                        <path id="Path_311" d="M602.143 164.586c7.774.982 11.712-8.3 11.856-8.649a9.166 9.166 0 0 1-5.549 3.98 15.227 15.227 0 0 1-5.949.3c-.016-.005-.032-.005-.048-.011a17.384 17.384 0 0 1-.31 4.38z" class="cls-21" data-name="Path 311" transform="translate(-601.22 -150.591)"/>
                    </g>
                    <g id="Group_261" data-name="Group 261" transform="translate(0 12.783)">
                        <path id="Path_312" d="M594.178 168.385s1.925 3.766 3.682 3.515 10.46-4.854 10.46-4.854 3.6 2.688 7.282 2.892 9.622 3.3 9.957 12.422-4.519 27.029-3.347 33.975c0 0 .5 2.51-1.255 2.761H582.3a3.2 3.2 0 0 1-.586-3.1c.669-1.674-.837-21.924-1.423-26.611s-1.841-12.552 2.594-14.979 9.787-3.594 11.293-6.021z" class="cls-3" data-name="Path 312" transform="translate(-579.666 -167.046)"/>
                        <path id="Path_313" d="M598.255 172.421s-.5 3.682.167 4.268 4.6-2.092 4.6-2.092 1.59 2.594 2.259 2.678" class="cls-7" data-name="Path 313" transform="translate(-585.751 -168.823)"/>
                    </g>
                </g>
                <g id="Group_273" data-name="Group 273" transform="translate(0 12.783)">
                    <g id="Group_265" data-name="Group 265" transform="translate(0 20.394)">
                        <g id="Group_264" data-name="Group 264">
                            <g id="Group_263" data-name="Group 263">
                                <path id="Rectangle_82" d="M0 0h40.684v26.678H0z" class="cls-14" data-name="Rectangle 82"/>
                                <path id="Rectangle_83" d="M0 0h63.894v2.134H0z" class="cls-14" data-name="Rectangle 83" transform="translate(0 26.678)"/>
                                <path id="Rectangle_84" d="M0 0h23.21v2.134H0z" class="cls-14" data-name="Rectangle 84" transform="translate(40.684 26.678)"/>
                                <path id="Rectangle_85" d="M0 0h1.601v26.678H0z" class="cls-14" data-name="Rectangle 85" transform="translate(39.084)"/>
                            </g>
                        </g>
                        <circle id="Ellipse_29" cx="3.236" cy="3.236" r="3.236" class="cls-1" data-name="Ellipse 29" transform="translate(16.375 9.955)"/>
                    </g>
                    <g id="Group_272" data-name="Group 272" transform="translate(32.162)">
                        <g id="Group_267" data-name="Group 267" transform="translate(18.076)">
                            <path id="Path_314" d="M617.8 167.046s-9.456 6.192-8.954 13.054-.5 53.221-.5 53.221H632.1a1.665 1.665 0 0 0 1.666-1.675c-.038-6.449-.061-29.614 1.519-35.647 1.841-7.029 2.008-20.586-2.343-23.765s-11.711-3.012-15.142-5.188z" class="cls-11" data-name="Path 314" transform="translate(-608.344 -167.046)"/>
                            <g id="Group_266" data-name="Group 266" transform="translate(.272 46.973)">
                                <path id="Path_315" d="M608.782 239.685s21.732-1.468 25.3-2.472l-25.334 4.836z" class="cls-14" data-name="Path 315" transform="translate(-608.751 -237.213)"/>
                                <path id="Line_107" d="M0 0h22.092" class="cls-7" data-name="Line 107" transform="translate(1.234 16.29)"/>
                            </g>
                        </g>
                        <g id="Group_271" data-name="Group 271" transform="translate(0 4.351)">
                            <g id="Group_268" data-name="Group 268" transform="translate(0 36.336)">
                                <path id="Path_316" d="M601.005 227.823c-1.142.428-1.9.712-2.205.824l-.147.052 1.785 4.694c.477.1.957.185 1.438.271-.303-1.943-.585-3.892-.871-5.841z" class="cls-22" data-name="Path 316" transform="translate(-587.065 -227.823)"/>
                                <path id="Path_317" d="M595.492 232.928s-5.765 6.791-8.831 8.139a.224.224 0 0 1-.327-.258c.1-.423.562-1.257 2.2-2.77 0 0-4.176 2.322-5 2.119s4.066-3.858 4.066-3.858-4.969 2.142-5.578 1.686 4.651-3.529 4.651-3.529-5.244 1.929-5.327 1.5c-.208-1.056 7.085-3.953 6.711-4.643-.332-.61-2.26-.6-3.248-.438a.31.31 0 0 1-.384-.3c0-.4.181-1.006 1.21-1.245a18.469 18.469 0 0 1 9.072-.05z" class="cls-20" data-name="Path 317" transform="translate(-581.343 -228.124)"/>
                            </g>
                            <g id="Group_270" data-name="Group 270" transform="translate(12.385)">
                                <path id="Path_318" d="M630.639 175.8s16.234 23.6 16.736 29.288-.837 9.038-15.565 11.715a193.425 193.425 0 0 1-30.125 2.678l-1.841-9.54 22.761-8.87s-9.372-13.724-9.038-16.736 17.072-8.535 17.072-8.535z" class="cls-11" data-name="Path 318" transform="translate(-599.844 -174.29)"/>
                                <g id="Group_269" data-name="Group 269" transform="translate(6.304)">
                                    <path id="Path_319" d="M620.642 196.38l6.918 11.6-18.3 6.137" class="cls-7" data-name="Path 319" transform="translate(-609.261 -181.094)"/>
                                    <path id="Line_108" d="M2.343 0L0 2.12" class="cls-7" data-name="Line 108" transform="translate(18.298 24.77)"/>
                                    <path id="Path_320" d="M623.19 183.7s-1.339-7.476 4.128-10.154" class="cls-7" data-name="Path 320" transform="translate(-613.817 -173.546)"/>
                                </g>
                            </g>
                        </g>
                    </g>
                </g>
            </g>
            <g id="Group_285" data-name="Group 285" transform="translate(35.703)">
                <g id="Group_284" data-name="Group 284" transform="translate(3.112 1.764)">
                    <path id="Path_321" d="M616.644 133.638a2.555 2.555 0 0 0-2.878-1.8 2.181 2.181 0 0 0-.369.151c.169-4.1-.43-8.6-3.282-11.076-6.135-5.336-14.939-3.468-16.807 1.334-2.135 5.49-2.243 12.286-2.172 18.1a6.992 6.992 0 0 0 .286 2.255c.976 2.758 4.908 4.46 7.564 5.012a11.213 11.213 0 0 0 9.532-2.412 12.393 12.393 0 0 0 4.088-6.958 5.471 5.471 0 0 0 1.665-.164 4.26 4.26 0 0 0 1.935-1.617 3.383 3.383 0 0 0 .438-2.825z" class="cls-20" data-name="Path 321" transform="translate(-591.121 -117.681)"/>
                    <g id="Group_283" data-name="Group 283" transform="translate(.64 8.151)">
                        <g id="Group_278" data-name="Group 278" transform="translate(2.264 4.434)">
                            <g id="Group_277" data-name="Group 277">
                                <g id="Group_275" data-name="Group 275">
                                    <path id="Path_322" d="M597.034 138.093c0 .891-.352 1.613-.788 1.613s-.787-.722-.787-1.613.353-1.613.787-1.613.788.72.788 1.613z" class="cls-14" data-name="Path 322" transform="translate(-595.459 -136.48)"/>
                                </g>
                                <g id="Group_276" data-name="Group 276" transform="translate(6.823)">
                                    <path id="Path_323" d="M605.651 138.093c0 .891.353 1.613.788 1.613s.788-.722.788-1.613-.353-1.613-.788-1.613-.788.72-.788 1.613z" class="cls-14" data-name="Path 323" transform="translate(-605.651 -136.48)"/>
                                </g>
                            </g>
                        </g>
                        <g id="Group_280" data-name="Group 280" transform="translate(3.505 10.927)">
                            <g id="Group_279" data-name="Group 279">
                                <path id="Path_324" d="M597.313 146.178a3.858 3.858 0 0 0 1.188 1.35 3.014 3.014 0 0 0 1.763.586 3.055 3.055 0 0 0 1.755-.606 5.757 5.757 0 0 0 .68-.605c.185-.239.367-.477.529-.725-.243.178-.465.368-.688.552-.248.151-.469.336-.72.463a3.256 3.256 0 0 1-1.558.443 3.171 3.171 0 0 1-1.564-.422 6.781 6.781 0 0 1-1.385-1.036z" class="cls-14" data-name="Path 324" transform="translate(-597.313 -146.178)"/>
                                <path id="Path_325" d="M600.492 150.45a1.3 1.3 0 0 0 .829.281 1.359 1.359 0 0 0 .83-.281 4.264 4.264 0 0 1-.83.093 3.583 3.583 0 0 1-.829-.093z" class="cls-14" data-name="Path 325" transform="translate(-598.364 -147.59)"/>
                            </g>
                        </g>
                        <g id="Group_282" data-name="Group 282">
                            <g id="Group_281" data-name="Group 281">
                                <path id="Path_326" d="M604.607 130.309a1.87 1.87 0 0 1 1.22-.452 3.761 3.761 0 0 1 1.3.185 3.178 3.178 0 0 1 1.145.655 3.333 3.333 0 0 1 .781 1 .377.377 0 0 1-.584.461l-.032-.029a4.689 4.689 0 0 0-.778-.618 2.738 2.738 0 0 0-.859-.353 3.338 3.338 0 0 0-.931-.09 3.6 3.6 0 0 1-.995-.058l-.1-.025a.394.394 0 0 1-.289-.477.389.389 0 0 1 .122-.199z" class="cls-14" data-name="Path 326" transform="translate(-596.175 -129.856)"/>
                                <path id="Path_327" d="M596.572 130.309a1.87 1.87 0 0 0-1.221-.452 3.76 3.76 0 0 0-1.3.185 3.178 3.178 0 0 0-1.145.655 3.324 3.324 0 0 0-.781 1 .377.377 0 0 0 .584.461l.032-.029a4.689 4.689 0 0 1 .778-.618 2.731 2.731 0 0 1 .859-.353 3.336 3.336 0 0 1 .931-.09 3.594 3.594 0 0 0 .995-.058l.1-.025a.394.394 0 0 0 .29-.477.389.389 0 0 0-.122-.199z" class="cls-14" data-name="Path 327" transform="translate(-592.077 -129.856)"/>
                            </g>
                        </g>
                        <path id="Path_328" d="M598.851 134.984c-.139.607-.242 1.211-.354 1.809s-.226 1.192-.4 1.756a4.926 4.926 0 0 1-.133.416 1.5 1.5 0 0 0-.137.521 1.049 1.049 0 0 0 .566.956 1.267 1.267 0 0 0 1.028.055 2.505 2.505 0 0 0 .814-.487c-.565.212-1.226.378-1.624.078a.622.622 0 0 1-.279-.575 1.15 1.15 0 0 1 .118-.358q.091-.226.16-.456a8.556 8.556 0 0 0 .3-1.856 9.806 9.806 0 0 0-.059-1.859z" class="cls-14" data-name="Path 328" transform="translate(-593.979 -131.551)"/>
                        <path id="Path_329" d="M626.264 141.959a1.34 1.34 0 0 0-.42-1.067 1.248 1.248 0 0 0-1.217-.117 2.3 2.3 0 0 0-.983.716 3.673 3.673 0 0 0-.611 1.03.269.269 0 0 0 .441.289l.017-.018a2.378 2.378 0 0 1 .9-.639.418.418 0 0 1 .38.042 1.01 1.01 0 0 1 .271.419c.137.353.22.767-.082.931a2.025 2.025 0 0 1-1.194.081 1.874 1.874 0 0 0 1.312.176.739.739 0 0 0 .463-.618 1.923 1.923 0 0 0-.076-.714 1.351 1.351 0 0 0-.382-.659.9.9 0 0 0-.825-.17 2.6 2.6 0 0 0-1.176.791l.459.271a2.882 2.882 0 0 1 1.238-1.55 1.013 1.013 0 0 1 .917-.056 1.347 1.347 0 0 1 .568.862z" class="cls-14" data-name="Path 329" transform="translate(-602.303 -133.431)"/>
                    </g>
                </g>
                <path id="Path_330" d="M615.956 129.915c-.4-3.026-1.915-6.2-4.519-7.786.415-2.182-1.038-4.392-2.972-5.476a12.452 12.452 0 0 0-6.465-1.185 37.932 37.932 0 0 1-6.641-.007 13.072 13.072 0 0 0-3.515-.382 5.99 5.99 0 0 0-4.351 3.387 9.155 9.155 0 0 0-.589 6.962c.683 2.129 2.149 4.03 2.859 6.1.082-1.192.2-2.381.371-3.555a2.331 2.331 0 0 0 .606-.3c1.212-.809 2.126-2.044 3.429-2.7 1.743-.875 3.819-.551 5.743-.237s4.136.554 5.822-.427a7.216 7.216 0 0 0 1.159 6.18 5.31 5.31 0 0 1 1.332 2.22c.056.378 0 .763.018 1.143a1.272 1.272 0 0 0 .457 1 1.106 1.106 0 0 0 1.273-.145 3.246 3.246 0 0 0 .775-1.121l1.274-2.549a1.347 1.347 0 0 1 .208-.077 2.551 2.551 0 0 1 2.879 1.8 3.369 3.369 0 0 1-.435 2.818 4.292 4.292 0 0 1-1.935 1.613 5.275 5.275 0 0 1-1.647.167 69.326 69.326 0 0 0-.335 2.229 22.448 22.448 0 0 0 3.883-3.709 8.618 8.618 0 0 0 1.316-5.963z" class="cls-14" data-name="Path 330" transform="translate(-586.473 -115.047)"/>
            </g>
        </g>
        <g id="Group_308" data-name="Group 308" transform="translate(191.673 -6.15)">
            <g id="Group_287" data-name="Group 287" transform="translate(79.327 13.389)">
                <circle id="Ellipse_30" cx="11.046" cy="11.046" r="11.046" class="cls-1" data-name="Ellipse 30" transform="translate(441.683 193.262)"/>
                <circle id="Ellipse_31" cx="3.021" cy="3.021" r="3.021" class="cls-1" data-name="Ellipse 31" transform="translate(10.042 11.381)"/>
                <circle id="Ellipse_32" cx="2.343" cy="2.343" r="2.343" class="cls-3" data-name="Ellipse 32" transform="translate(-110 62.008)"/>
                <circle id="Ellipse_33" cx="2.678" cy="2.678" r="2.678" class="cls-3" data-name="Ellipse 33" transform="translate(554.047 165.543)"/>
                <circle id="Ellipse_34" cx="3.013" cy="3.013" r="3.013" class="cls-3" data-name="Ellipse 34" transform="translate(416.353 93)"/>
                <circle id="Ellipse_35" cx="7.029" cy="7.029" r="7.029" class="cls-1" data-name="Ellipse 35" transform="translate(166.087 -7.239)"/>
                <circle id="Ellipse_40" cx="3.343" cy="3.343" r="3.343" class="cls-3" data-name="Ellipse 40" transform="translate(-271 240.008)"/>
            </g>
            <g id="Group_307" data-name="Group 307">
                <g id="Group_291" data-name="Group 291" transform="translate(554.814 48)">
                    <g id="Group_288" data-name="Group 288" transform="translate(0 .637)">
                        <path id="Path_331" d="M636.543 79.709l-1.205-1.209 9.024-9.024 6.075 6.076 8.6-8.6 1.206 1.206-9.808 9.808-6.075-6.076z" class="cls-3" data-name="Path 331" transform="translate(-635.338 -66.952)"/>
                    </g>
                    <g id="Group_290" data-name="Group 290" transform="translate(20.303)">
                        <g id="Group_289" data-name="Group 289">
                            <path id="Path_332" d="M669.346 71.242v-3.681h-3.681L667.228 66h3.68v3.68z" class="cls-3" data-name="Path 332" transform="translate(-665.666 -66)"/>
                        </g>
                    </g>
                </g>
                <g id="Group_295" data-name="Group 295" transform="translate(-129 159.681)">
                    <g id="Group_292" data-name="Group 292" transform="translate(0 .637)">
                        <path id="Path_333" d="M64.71 204.709L63.5 203.5l9.024-9.024 6.076 6.076 8.6-8.6 1.206 1.206-9.806 9.809-6.076-6.076z" class="cls-3" data-name="Path 333" transform="translate(-63.504 -191.952)"/>
                    </g>
                    <g id="Group_294" data-name="Group 294" transform="translate(20.304)">
                        <g id="Group_293" data-name="Group 293">
                            <path id="Path_334" d="M97.513 196.242v-3.681h-3.68L95.4 191h3.68v3.68z" class="cls-3" data-name="Path 334" transform="translate(-93.833 -191)"/>
                        </g>
                    </g>
                </g>
                <g id="Group_300" data-name="Group 300" transform="translate(452.398 22.591)">
                    <g id="Group_296" data-name="Group 296" transform="translate(13.715)">
                        <path id="Rectangle_86" d="M0 0h2.7v1.706H0z" class="cls-3" data-name="Rectangle 86"/>
                    </g>
                    <g id="Group_297" data-name="Group 297">
                        <path id="Rectangle_87" d="M0 0h11.263v1.706H0z" class="cls-3" data-name="Rectangle 87"/>
                    </g>
                    <g id="Group_298" data-name="Group 298" transform="translate(0 3.198)">
                        <path id="Rectangle_88" d="M0 0h16.415v1.706H0z" class="cls-3" data-name="Rectangle 88"/>
                    </g>
                    <g id="Group_299" data-name="Group 299" transform="translate(0 6.396)">
                        <path id="Rectangle_89" d="M0 0h16.415v1.706H0z" class="cls-3" data-name="Rectangle 89"/>
                    </g>
                </g>
                <g id="Group_306" data-name="Group 306" transform="translate(-172.784 27.048)">
                    <g id="Group_301" data-name="Group 301" transform="translate(1.422 1.635)">
                        <path id="Path_335" d="M95.539 121.991l-1.206-1.206 9.024-9.024 6.289 6.289 9.2-9.2 1.206 1.206-10.409 10.41-6.289-6.289z" class="cls-3" data-name="Path 335" transform="translate(-94.332 -108.846)"/>
                    </g>
                    <g id="Group_302" data-name="Group 302" transform="translate(0 11.619)">
                        <circle id="Ellipse_36" cx="2.452" cy="2.452" r="2.452" class="cls-4" data-name="Ellipse 36"/>
                    </g>
                    <g id="Group_303" data-name="Group 303" transform="translate(7.568 3.198)">
                        <circle id="Ellipse_37" cx="2.452" cy="2.452" r="2.452" class="cls-4" data-name="Ellipse 37"/>
                    </g>
                    <g id="Group_304" data-name="Group 304" transform="translate(14.39 9.7)">
                        <circle id="Ellipse_38" cx="2.452" cy="2.452" r="2.452" class="cls-4" data-name="Ellipse 38"/>
                    </g>
                    <g id="Group_305" data-name="Group 305" transform="translate(23.451)">
                        <circle id="Ellipse_39" cx="2.452" cy="2.452" r="2.452" class="cls-4" data-name="Ellipse 39"/>
                    </g>
                </g>
            </g>
        </g>
    </g>
</svg>
