<svg xmlns="http://www.w3.org/2000/svg" id="illustration_2" width="471.802" height="275.687" viewBox="0 0 471.802 275.687">
    <defs>
        <style>
            .cls-1{fill:#ffe7e1}.cls-1,.cls-21{opacity:.3}.cls-2{fill:#439b8a}.cls-3{fill:#5aa595}.cls-4{fill:#eed9ff}.cls-5{fill:#101835}.cls-6{fill:#ffce76}.cls-7{fill:#fff}.cls-8{fill:#daf3f7}.cls-21,.cls-22,.cls-9{fill:#efae95}.cls-10{fill:#a7d0d6}.cls-11{fill:#26221d}.cls-12{fill:#fec5a7}.cls-13{fill:#00a6eb}.cls-14{fill:#b9dae1}.cls-15{opacity:.2}.cls-16{fill:#efb59e}.cls-17{fill:#d69580}.cls-18{fill:#9b6a5a}.cls-19{fill:#212121}.cls-20{fill:#04061b}.cls-22{opacity:.4}.cls-23{fill:#485999}.cls-24{fill:#6b5ae4}.cls-25{fill:#31177a}.cls-26{fill:#0096d5}.cls-27{fill:#3c93c6}.cls-28{fill:#1f2647}.cls-29{fill:#e35955}.cls-30{fill:#e08b03}.cls-31{fill:#ffa400}.cls-32{fill:#1a223d}.cls-33{fill:#e87272}.cls-34{fill:#fc8a8a}.cls-35{fill:#faccae;stroke:#faccae;stroke-width:.6px}.cls-36{fill:#03051d}.cls-37{fill:#5f56d6}.cls-38{fill:#ffb133}
        </style>
    </defs>
    <g id="Group_338" data-name="Group 338">
        <g id="Group_337" data-name="Group 337">
            <path id="Path_338" d="M375.517 137.783c-11.325-13.591-30.357-16.034-45.75-9.514S302.23 148.8 292.837 164.2c3.122-31.758-3.853-66.124-23.772-88.535-25.842-29.08-68.377-31.657-101.565-14.984-16.125 8.1-30.972 20.511-40.5 37.451-9.111 16.193-12.876 36.8-8.2 55.232-6.663-22.606-25.173-39.937-45.819-43.7-21.413-3.9-44.138 6.427-58.15 25.354S-4.394 180.652.264 204.874c-5.488-17.181-27.1-24.1-39.59-12.684-9.275 8.48-12.216 23.614-10.34 37.025a89.671 89.671 0 0 0 6.535 22.293c1.441 13.128 13.868 29.72 13.851 28.847l390.269 7.09c13.187-28.678 21.41-60.2 24.971-92.346 2.22-20.035 1.74-42.699-10.443-57.316z" class="cls-1" data-name="Path 338" transform="translate(84.81 -50.377)"/>
            <path id="Path_339" d="M-85.216 348.716c-5.885-6.874-11.942-14.069-14.252-22.818s.333-19.515 8.363-23.687c9.382-4.874 20.537 1.013 29.426 6.737-3.777-10.445-6.584-21.54-5.4-32.584s6.96-22.073 16.8-27.227c3.788-1.984 8.438-3.01 12.316-1.21 6.224 2.889 7.428 11.283 6.332 18.057s-3.6 13.742-1.582 20.3c4.027-1.32 6.468-5.83 10.584-6.839 5.352-1.311 10.3 4.451 10.365 9.96s-3.115 10.467-6.174 15.05c13.03-14.331 36.722-17.41 52.982-6.886s21.823 32.764 14.087 50.52z" class="cls-2" data-name="Path 339" transform="translate(100.271 -111.093)"/>
            <path id="Path_340" d="M285.749 333.187c-7.846-9.165-15.923-18.758-19-30.424s.444-26.019 11.15-31.581c12.509-6.5 27.382 1.35 39.233 8.982-5.035-13.926-8.777-28.72-7.2-43.444s9.28-29.43 22.4-36.3c5.05-2.645 11.251-4.013 16.421-1.613 8.3 3.853 9.9 15.045 8.442 24.076s-4.8 18.323-2.11 27.068c5.37-1.76 8.623-7.774 14.111-9.118 7.135-1.749 13.737 5.933 13.82 13.279s-4.153 13.957-8.231 20.067c17.373-19.107 48.962-23.213 70.641-9.183s26.5 44.391 16.182 68.065z" class="cls-3" data-name="Path 340" transform="translate(-12.735 -95.828)"/>
            <g id="Group_322" data-name="Group 322" transform="translate(301.681 124.113)">
                <path id="Path_341" d="M355.964 337.4a26.5 26.5 0 0 1 5.438 5.785h40.074c.173-2.326-.675-4.52-2.867-5.449-2.336-.99-4.986-.081-7.519.059s-5.7-1.293-5.505-3.822c.211-2.741 3.835-3.459 6.579-3.609a60.072 60.072 0 0 0 18.985-4.194c4.717-1.886 9.436-4.613 11.835-9.091s1.474-11.013-3.042-13.339c-6.423-3.31-13.98 3.532-21.084 2.212a4.823 4.823 0 0 1-3.085-1.68c-1.559-2.128-.027-5.095 1.622-7.155 5.662-7.074 12.861-12.735 19.268-19.143s12.215-13.962 13.96-22.854-1.614-19.279-9.687-23.394c-8.771-4.471-20.018-.044-26.2 7.616s-8.419 17.706-10.014 27.42-2.813 19.746-7.468 28.421a5.672 5.672 0 0 1-1.55 2.019c-2.734 1.963-6.174-1.428-7.475-4.532s-3.14-7.058-6.494-6.776c-2.458.205-4.061 2.9-4.064 5.366s1.129 4.769 2.038 7.062a42.45 42.45 0 0 1 1.578 26.245c-4.944-.759-7.828-5.758-11.143-9.5s-9.846-6.311-12.867-2.324c-1.97 2.6-.967 6.389.763 9.154 4.215 6.74 11.726 10.524 17.924 15.503z" class="cls-4" data-name="Path 341" transform="translate(-336.192 -229.94)"/>
                <g id="Group_310" data-name="Group 310" transform="translate(33.862 3.208)">
                    <path id="Path_342" d="M386.265 344.619a662.634 662.634 0 0 1 47.712-109.544l-.9-.493a663.559 663.559 0 0 0-47.894 110.038z" class="cls-5" data-name="Path 342" transform="translate(-385.183 -234.581)"/>
                </g>
                <g id="Group_312" data-name="Group 312" transform="translate(43.179 83.548)">
                    <path id="Path_344" d="M398.663 356.574a67.046 67.046 0 0 0 33.737-4.813l-.4-.947a66.015 66.015 0 0 1-33.22 4.739z" class="cls-5" data-name="Path 344" transform="translate(-398.663 -350.814)"/>
                </g>
                <g id="Group_313" data-name="Group 313" transform="translate(35.108 89.716)">
                    <path id="Path_345" d="M390.136 370.7l.968-.346a96.645 96.645 0 0 1-3.117-10.613l-1 .233a97.745 97.745 0 0 0 3.149 10.726z" class="cls-5" data-name="Path 345" transform="translate(-386.986 -359.738)"/>
                </g>
                <g id="Group_314" data-name="Group 314" transform="translate(25.938 62.37)">
                    <path id="Path_346" d="M381.362 344.454l1-.23a150.545 150.545 0 0 0-7.7-24.049l-.949.394a149.583 149.583 0 0 1 7.649 23.885z" class="cls-5" data-name="Path 346" transform="translate(-373.719 -320.174)"/>
                </g>
                <g id="Group_315" data-name="Group 315" transform="translate(55.491 112.193)">
                    <path id="Path_347" d="M423.282 393.309l.242-.037-.155-1.016-6.893 1.053z" class="cls-5" data-name="Path 347" transform="translate(-416.476 -392.256)"/>
                </g>
                <g id="Group_316" data-name="Group 316" transform="translate(26.938 105.971)">
                    <path id="Path_348" d="M380.095 390.53h1.117a18.74 18.74 0 0 0-5.4-7.275l-.65.795a17.71 17.71 0 0 1 4.933 6.48z" class="cls-5" data-name="Path 348" transform="translate(-375.165 -383.255)"/>
                </g>
                <g id="Group_317" data-name="Group 317" transform="translate(4.032 85.756)">
                    <path id="Path_349" d="M361.628 372.147l.816-.624c-4.4-5.756-10.213-10.194-15.831-14.487l-3.963-3.028-.624.817 3.963 3.027c5.564 4.248 11.319 8.648 15.639 14.295z" class="cls-5" data-name="Path 349" transform="translate(-342.026 -354.008)"/>
                </g>
                <g id="Group_319" data-name="Group 319" transform="translate(60.4 41.895)">
                    <path id="Path_351" d="M423.968 297.542a80.375 80.375 0 0 0 11.912-6.118l-.545-.872a79.239 79.239 0 0 1-11.759 6.04z" class="cls-5" data-name="Path 351" transform="translate(-423.577 -290.552)"/>
                </g>
                <g id="Group_320" data-name="Group 320" transform="translate(69.098 5.147)">
                    <path id="Path_352" d="M437.071 258.758l1.013-.178a58.543 58.543 0 0 1 .111-21l-1.01-.189a59.554 59.554 0 0 0-.114 21.367z" class="cls-5" data-name="Path 352" transform="translate(-436.16 -237.386)"/>
                </g>
                <g id="Group_321" data-name="Group 321" transform="translate(50.307 39.244)">
                    <path id="Path_353" d="M410.135 314.224l1.02-.127a151.132 151.132 0 0 1-.9-27.321l-1.026-.059a152.175 152.175 0 0 0 .906 27.507z" class="cls-5" data-name="Path 353" transform="translate(-408.975 -286.717)"/>
                </g>
            </g>
            <g id="Group_336" data-name="Group 336" transform="translate(62.854 133.567)">
                <path id="Path_354" d="M15.056 331.339c-.508 1.989-3.31 2.265-5.216 1.5s-3.7-2.153-5.749-2c-4.078.3-5 6.537-2.317 9.621 3.571 4.1 9.494 4.085 13.931 6.738h12.8a19.752 19.752 0 0 1 8.369-5.523c6.048-2.206 12.791-3.153 17.778-7.224 2.046-1.67 3.8-4.315 2.967-6.82-1.279-3.842-6.953-3.574-10.47-1.566s-7.027 5.091-11.016 4.386a34.37 34.37 0 0 1 8.037-19.712c1.294-1.522 2.759-2.992 3.4-4.884s.112-4.375-1.719-5.172c-2.5-1.088-4.937 1.465-6.742 3.506s-5.325 3.746-6.911 1.53a4.6 4.6 0 0 1-.664-1.952c-1.312-7.861.364-15.869 1.668-23.732s2.2-16.147-.545-23.628-10.221-13.8-18.109-12.655c-7.26 1.055-12.538 8.146-13.512 15.416s1.513 14.574 4.758 21.153 7.292 12.793 9.794 19.689c.729 2.008 1.131 4.681-.618 5.908a3.9 3.9 0 0 1-2.8.485c-5.79-.836-9.8-8.048-15.59-7.181-4.067.61-6.477 5.38-5.8 9.437s3.583 7.375 6.709 10.047a48.631 48.631 0 0 0 13.464 8.155c2.063.829 4.654 2.322 4.103 4.478z" class="cls-6" data-name="Path 354" transform="translate(9.336 -243.617)"/>
                <g id="Group_323" data-name="Group 323" transform="translate(24.988 2.001)">
                    <path id="Path_355" d="M34.846 348.09h.832a537.3 537.3 0 0 0-8.043-101.578l-.82.144a536.406 536.406 0 0 1 8.031 101.434z" class="cls-5" data-name="Path 355" transform="translate(-26.815 -246.512)"/>
                </g>
                <g id="Group_325" data-name="Group 325" transform="translate(8.372 64.961)">
                    <path id="Path_357" d="M27.392 350.688a54.287 54.287 0 0 1-24.616-12.466l.553-.622a53.451 53.451 0 0 0 24.237 12.274z" class="cls-5" data-name="Path 357" transform="translate(-2.776 -337.6)"/>
                </g>
                <g id="Group_326" data-name="Group 326" transform="translate(33.151 80.201)">
                    <path id="Path_358" d="M39.277 367.491l-.652-.517a78.278 78.278 0 0 0 5.15-7.325l.707.439a79.244 79.244 0 0 1-5.205 7.403z" class="cls-5" data-name="Path 358" transform="translate(-38.625 -359.649)"/>
                </g>
                <g id="Group_329" data-name="Group 329" transform="translate(21.42 95.62)">
                    <path id="Path_360" d="M32.193 389.916h1.122a29.131 29.131 0 0 0-11.359-7.959l-.3.776a28.291 28.291 0 0 1 10.537 7.183z" class="cls-5" data-name="Path 360" transform="translate(-21.654 -381.957)"/>
                </g>
                <g id="Group_330" data-name="Group 330" transform="translate(33.411 94.88)">
                    <path id="Path_361" d="M39.692 387.03l-.69-.465a15.165 15.165 0 0 1 7.195-5.679l.292.779a14.331 14.331 0 0 0-6.797 5.365z" class="cls-5" data-name="Path 361" transform="translate(-39.002 -380.886)"/>
                </g>
                <g id="Group_333" data-name="Group 333" transform="translate(22.457 34.159)">
                    <path id="Path_364" d="M30.7 301.353a65.01 65.01 0 0 1-7.542-7.788l.645-.527a64.136 64.136 0 0 0 7.444 7.69z" class="cls-5" data-name="Path 364" transform="translate(-23.154 -293.037)"/>
                </g>
                <g id="Group_334" data-name="Group 334" transform="translate(28.021 6.397)">
                    <path id="Path_365" d="M31.932 269.4l-.5-.853a44.663 44.663 0 0 0 5.153-15.68l.824.118a48.219 48.219 0 0 1-5.477 16.415z" class="cls-5" data-name="Path 365" transform="translate(-31.203 -252.872)"/>
                </g>
                <g id="Group_335" data-name="Group 335" transform="translate(31.751 37.524)">
                    <path id="Path_366" d="M37.349 318.98l-.749-.363a122.346 122.346 0 0 0 7.8-20.717l.8.221a123.166 123.166 0 0 1-7.851 20.859z" class="cls-5" data-name="Path 366" transform="translate(-36.6 -297.905)"/>
                </g>
            </g>
        </g>
    </g>
    <path id="Path_367" d="M283.133 168.931c3.851 1.237 9.19.37 12.967.37h22.64c11.619 0 23.854 1.116 35.411 0 8.065-.776 15.475-6.369 16.909-14.667.36-2.085.259-4.448-1.158-6.019-2.26-2.506-6.337-1.655-9.474-.413-5.055 2-10.591 5.492-10.849 10.923L353.6 146.9c.934-2.836 1.879-5.76 1.674-8.739s-1.844-6.062-4.658-7.062c-3.439-1.223-7.194 1.029-9.539 3.826-4.749 5.662-6.058 13.36-7.193 20.661a16.2 16.2 0 0 0-.442-6.074 5.507 5.507 0 0 0-4.286-3.909c-2.115-.222-4.105 1.3-5.1 3.175a16.2 16.2 0 0 0-1.41 6.177c-.767-3.263-.02-7.587-2.965-9.187-1.808-.982-4.171-.166-5.575 1.339a13.82 13.82 0 0 0-2.681 5.5q-.543-4.819-1.379-9.6c-.769-4.4-2.124-9.315-6.081-11.379-3.381-1.763-7.763-.683-10.568 1.9s-4.224 6.38-4.758 10.156a8.33 8.33 0 0 0-14.6.064 12.885 12.885 0 0 0-1.093 7.448c.574 5.755 3.119 12.034 7.341 16.108a7.181 7.181 0 0 0 2.846 1.627z" class="cls-7" data-name="Path 367" transform="translate(-14.948 -75.2)"/>
    <path id="Path_368" d="M52.131 229.136c2.259.726 5.391.217 7.605.217h13.279c6.814 0 13.99.655 20.768 0 4.73-.455 9.076-3.735 9.917-8.6a4.189 4.189 0 0 0-.679-3.531c-1.326-1.469-3.717-.97-5.557-.241-2.965 1.174-6.211 3.221-6.362 6.406l2.36-7.17a13.634 13.634 0 0 0 .982-5.126 4.641 4.641 0 0 0-2.732-4.142c-2.017-.717-4.218.6-5.595 2.244-2.785 3.321-3.553 7.835-4.218 12.117a9.482 9.482 0 0 0-.259-3.562 2.869 2.869 0 0 0-5.506-.431 9.492 9.492 0 0 0-.827 3.623c-.449-1.914-.012-4.449-1.738-5.388a2.834 2.834 0 0 0-3.27.785 8.11 8.11 0 0 0-1.572 3.226q-.318-2.827-.809-5.63c-.451-2.579-1.246-5.463-3.567-6.674a5.623 5.623 0 0 0-6.2 1.114 9.877 9.877 0 0 0-2.791 5.956 4.885 4.885 0 0 0-8.563.038 7.556 7.556 0 0 0-.641 4.368 15.693 15.693 0 0 0 4.3 9.447 4.211 4.211 0 0 0 1.675.954z" class="cls-7" data-name="Path 368" transform="translate(55.072 -98.665)"/>
    <g id="Group_349" data-name="Group 349" transform="translate(189.474 155.216)">
        <path id="Path_369" d="M175.869 341.52c1.75-1.64 4.591-1.136 6.763-.12a23.014 23.014 0 0 1 5.09 3.322c1.244 1.053 2.727 2.3 4.3 1.861a3.051 3.051 0 0 0 1.976-2.3 7.421 7.421 0 0 0-.116-3.153 28.649 28.649 0 0 0-4.142-10.015c-1.736-2.651-3.758-5.465-3.345-8.844.2-1.653 1.448-3.305 3.111-3.372a4.158 4.158 0 0 1 2.025.548c2.593 1.328 4.4 3.785 5.975 6.235.657 1.02 1.434 2.152 2.631 2.344a2.85 2.85 0 0 0 2.732-1.494 7.574 7.574 0 0 0 .832-3.172c1.008-10.113-.976-20.3-.655-30.454.153-4.842.969-9.978 4.175-13.61 3.806-4.313 10.515-5.459 15.844-3.291s9.192 7.231 10.631 12.8a27.644 27.644 0 0 1-1.481 16.909A52.874 52.874 0 0 1 223 320.221c-1.759 2.072-3.723 4.834-2.467 7.244 2.461-.524 4.681-1.822 7.063-2.636s5.191-1.078 7.264.348a7.027 7.027 0 0 1 2.694 5.628c.189 6.232-3.506 10.685-8.632 13.681a43.833 43.833 0 0 1-13.246 5.075c-1.964.4-4.5 1.313-4.359 3.313a2.4 2.4 0 0 0 1.855 2.022l-.046.053h-29.69a25.281 25.281 0 0 1-7.73-5.659c-2.562-3.001-2.428-5.342.163-7.77z" class="cls-4" data-name="Path 369" transform="translate(-173.854 -274.938)"/>
        <g id="Group_339" data-name="Group 339" transform="translate(28.383 1.694)">
            <path id="Path_370" d="M214.917 355.706a484.035 484.035 0 0 1 21.56-78.317l.7.259a483.362 483.362 0 0 0-21.5 78.057z" class="cls-5" data-name="Path 370" transform="translate(-214.917 -277.389)"/>
        </g>
        <g id="Group_341" data-name="Group 341" transform="translate(31.371 60.229)">
            <path id="Path_372" d="M219.265 369.827a48.914 48.914 0 0 0 23.825-7.112l-.391-.64a48.167 48.167 0 0 1-23.458 7z" class="cls-5" data-name="Path 372" transform="translate(-219.241 -362.075)"/>
        </g>
        <g id="Group_342" data-name="Group 342" transform="translate(25.642 69.039)">
            <path id="Path_373" d="M214.382 382.5l.661-.354a70.521 70.521 0 0 1-3.394-7.32l-.7.276a71.174 71.174 0 0 0 3.433 7.398z" class="cls-5" data-name="Path 373" transform="translate(-210.952 -374.821)"/>
        </g>
        <g id="Group_343" data-name="Group 343" transform="translate(16.092 50.301)">
            <path id="Path_374" d="M205.227 364.509l.7-.274a109.863 109.863 0 0 0-8.147-16.523l-.642.387a109.09 109.09 0 0 1 8.089 16.41z" class="cls-5" data-name="Path 374" transform="translate(-197.136 -347.712)"/>
        </g>
        <g id="Group_344" data-name="Group 344" transform="translate(2.855 69.574)">
            <path id="Path_375" d="M193.352 386.032c-3.608-3.293-7.963-5.7-12.182-8.023l-3.186-1.758.362-.657 3.186 1.758c4.49 2.476 9.131 5.037 12.916 8.679z" class="cls-5" data-name="Path 375" transform="translate(-177.984 -375.595)"/>
        </g>
        <g id="Group_346" data-name="Group 346" transform="translate(39.358 30.644)">
            <path id="Path_377" d="M231.181 325.543a58.644 58.644 0 0 0 7.935-5.7l-.487-.571a57.781 57.781 0 0 1-7.829 5.628z" class="cls-5" data-name="Path 377" transform="translate(-230.796 -319.273)"/>
        </g>
        <g id="Group_347" data-name="Group 347" transform="translate(41.727 4.349)">
            <path id="Path_378" d="M236.477 296.663l.711-.238A42.694 42.694 0 0 1 235 281.258l-.749-.028a43.462 43.462 0 0 0 2.226 15.433z" class="cls-5" data-name="Path 378" transform="translate(-234.223 -281.23)"/>
        </g>
        <g id="Group_348" data-name="Group 348" transform="translate(31.319 30.994)">
            <path id="Path_379" d="M222.789 339.6l.722-.2a110.348 110.348 0 0 1-3.6-19.615l-.746.068a111.023 111.023 0 0 0 3.624 19.747z" class="cls-5" data-name="Path 379" transform="translate(-219.166 -319.779)"/>
        </g>
    </g>
    <g id="Group_369" data-name="Group 369" transform="translate(90.809 231.704)">
        <path id="Path_380" d="M333.7 429.581H31.108L74.937 385.6h224.68z" class="cls-8" data-name="Path 380" transform="translate(-31.108 -385.599)"/>
    </g>
    <g id="Group_399" data-name="Group 399" transform="translate(101.383 112.336)">
        <path id="Path_393" d="M206.744 281.787c-11.193-11.949-9.059-1.178-9.681 5.6-.968 10.546 5.807 19.908 10.364 29.468 3.637 7.632 7.968 15.49 15.263 19.763a5.946 5.946 0 0 0 4.189 1.055 4.608 4.608 0 0 0 3.172-4.134 13.507 13.507 0 0 0-.941-5.441c-.991-3.111-20.582-44.406-22.366-46.311z" class="cls-9" data-name="Path 393" transform="translate(-92.902 -232.515)"/>
        <path id="Path_394" d="M217.728 303.454c-5.081-10.586-10.12-20.745-10.984-21.667-11.193-11.949-9.059-1.178-9.681 5.6-.766 8.35 3.321 15.956 7.318 23.507a91.112 91.112 0 0 1 13.347-7.44z" class="cls-10" data-name="Path 394" transform="translate(-92.902 -232.515)"/>
        <path id="Path_395" d="M184.266 223.819a22.034 22.034 0 0 0-14.259 1.9 17.886 17.886 0 0 0-9.035 11.007c-.442 1.671-.733 3.6-2.162 4.576-1.337.91-3.116.591-4.726.744a5.381 5.381 0 0 0-4.71 3.307c-.206.632-.252 1.308-.477 1.933a3.71 3.71 0 0 1-4.678 2.108c-.087 3.34 2.891 5.887 5.729 7.649a60.108 60.108 0 0 0 35.8 8.815 1.958 1.958 0 0 0 .769-.164 1.99 1.99 0 0 0 .726-.864c1.172-2.114 2.382-4.412 2.1-6.813a6.749 6.749 0 0 1-.124-1.375 5.8 5.8 0 0 1 1.53-2.694 14.593 14.593 0 0 0 2.225-5.845 58.025 58.025 0 0 0 1.146-9.957c.1-3.459-.169-7.1-2.017-10.027a10.611 10.611 0 0 0-10.689-4.638" class="cls-11" data-name="Path 395" transform="translate(-76.612 -216.115)"/>
        <path id="Path_396" d="M216.93 384.694a34.355 34.355 0 0 1 1.658-15.193 12.836 12.836 0 0 1 3.544-5.378 7.64 7.64 0 0 1 1.058-.738 29.631 29.631 0 0 0-3.636-.887q-20.785-7.492-41.954-13.854c-11.3-3.4-30.809-8.52-42.929-6.289-1.884 5.379-4.088 10.685-6.161 15.956.032.113.064.226.092.341a10.975 10.975 0 0 1 1.4 2.9A22.389 22.389 0 0 0 144 374.609c6.3 1.962 13.852.165 19.313-3.542.344-.233 21.039 9.818 25.636 10.906a102 102 0 0 0 13.813 2.3c4.026.382 8.14-.015 12.177-.044.7.444 1.4.9 2.084 1.363q-.052-.452-.093-.898z" class="cls-12" data-name="Path 396" transform="translate(-71.761 -252.708)"/>
        <path id="Path_397" d="M122.262 376.437a7.322 7.322 0 0 0 3.634-4.947 14.433 14.433 0 0 0-.873-7.815 18.1 18.1 0 0 0-1.868-3.971 20.312 20.312 0 0 0-6.981-6.031 24.388 24.388 0 0 0-5.918-2.646 12.143 12.143 0 0 0-3.253-.476 9.839 9.839 0 0 0-2.716.743C95.53 354 86.954 357.44 78.28 360.479a211.79 211.79 0 0 0-25.887 10.487 12.424 12.424 0 0 0-3.634 2.453 8.811 8.811 0 0 0-2.076 5.853c-.1 5.706 2.64 11.139 8.075 13.411 3.219 1.346 6.62 1.316 10.047 1.139.945-.132 1.889-.267 2.83-.415a241.092 241.092 0 0 0 34.083-9.371q7.356-2.651 14.589-5.627c1.043-.431 2.075-.926 3.134-1.313.914-.335 1.837-.191 2.731-.616z" class="cls-9" data-name="Path 397" transform="translate(-46.492 -255.407)"/>
        <path id="Path_398" d="M216.93 384.694a34.355 34.355 0 0 1 1.658-15.193 12.836 12.836 0 0 1 3.544-5.378 7.64 7.64 0 0 1 1.058-.738 29.631 29.631 0 0 0-3.636-.887q-20.785-7.492-41.954-13.854c-11.3-3.4-30.809-8.52-42.929-6.289-1.884 5.379-4.088 10.685-6.161 15.956.032.113.064.226.092.341a10.975 10.975 0 0 1 1.4 2.9A22.389 22.389 0 0 0 144 374.609c6.3 1.962 13.852.165 19.313-3.542.344-.233 21.039 9.818 25.636 10.906a102 102 0 0 0 13.813 2.3c4.026.382 8.14-.015 12.177-.044.7.444 1.4.9 2.084 1.363q-.052-.452-.093-.898z" class="cls-13" data-name="Path 398" transform="translate(-71.761 -252.708)"/>
        <path id="Path_399" d="M122.262 376.437a7.322 7.322 0 0 0 3.634-4.947 14.433 14.433 0 0 0-.873-7.815 18.1 18.1 0 0 0-1.868-3.971 20.312 20.312 0 0 0-6.981-6.031 24.388 24.388 0 0 0-5.918-2.646 12.143 12.143 0 0 0-3.253-.476 9.839 9.839 0 0 0-2.716.743C95.53 354 86.954 357.44 78.28 360.479a211.79 211.79 0 0 0-25.887 10.487 12.424 12.424 0 0 0-3.634 2.453 8.811 8.811 0 0 0-2.076 5.853c-.1 5.706 2.64 11.139 8.075 13.411 3.219 1.346 6.62 1.316 10.047 1.139.945-.132 1.889-.267 2.83-.415a241.092 241.092 0 0 0 34.083-9.371q7.356-2.651 14.589-5.627c1.043-.431 2.075-.926 3.134-1.313.914-.335 1.837-.191 2.731-.616z" class="cls-13" data-name="Path 399" transform="translate(-46.492 -255.407)"/>
        <path id="Path_400" d="M131.561 295.437c0 .333-.012.666-.025 1a36.049 36.049 0 0 1-4.142 15.443c-2.62 4.955-4.609 9.031-4.833 14.711 10.692-.061 20.861 8.128 23.081 18.588.505 2.38.954 5.272 3.2 6.216 2.638 1.109 5.321-1.473 6.778-3.936a36.449 36.449 0 0 0 4.97-16.983c.129-3.135-.617-6.047-.778-9.121a15.855 15.855 0 0 1 2-7.567 14.16 14.16 0 0 1 4.309-5.194c2.2-1.63 4.867-2.6 6.928-4.412a11.074 11.074 0 0 0 3.7-7.466c.148-2.13-.325-4.3.136-6.386a32.362 32.362 0 0 1 1.673-4.3 13.338 13.338 0 0 0-.094-9.557c-3.265-8.165-12.1-8.025-19.136-10.91-11.049-4.533-25.169 4.795-27.446 15.836-.95 4.601-.263 9.343-.321 14.038z" class="cls-9" data-name="Path 400" transform="translate(-69.924 -228.802)"/>
        <path id="Path_401" d="M131.561 295.437c0 .333-.012.666-.025 1a36.049 36.049 0 0 1-4.142 15.443c-2.62 4.955-4.609 9.031-4.833 14.711 10.692-.061 20.861 8.128 23.081 18.588.505 2.38.954 5.272 3.2 6.216 2.638 1.109 5.321-1.473 6.778-3.936a36.449 36.449 0 0 0 4.97-16.983c.129-3.135-.617-6.047-.778-9.121a15.855 15.855 0 0 1 2-7.567 14.16 14.16 0 0 1 4.309-5.194c2.2-1.63 4.867-2.6 6.928-4.412a11.074 11.074 0 0 0 3.7-7.466c.148-2.13-.325-4.3.136-6.386a32.362 32.362 0 0 1 1.673-4.3 13.338 13.338 0 0 0-.094-9.557c-3.265-8.165-12.1-8.025-19.136-10.91-11.049-4.533-25.169 4.795-27.446 15.836-.95 4.601-.263 9.343-.321 14.038z" class="cls-14" data-name="Path 401" transform="translate(-69.924 -228.802)"/>
        <path id="Path_402" d="M139.245 289.658c4.847-2.45 9.626-6.072 12.2-10.968a11.319 11.319 0 0 0-.826-12.594c-7.158 2.53-13.355 8.836-14.8 15.832a39.185 39.185 0 0 0-.418 9.393 33.883 33.883 0 0 0 3.844-1.663z" class="cls-10" data-name="Path 402" transform="translate(-73.862 -229.327)"/>
        <path id="Path_403" d="M178.461 278.854a12.288 12.288 0 0 0-6.576-6.761 27.25 27.25 0 0 1 1.126 3.83 20.268 20.268 0 0 1-.323 10.911 11.73 11.73 0 0 1-7.985 7.54 22.323 22.323 0 0 1-6.775.472c-2.713-.13-5.419-.372-8.126-.583-5.313-.414-10.629-.791-15.952-1.036-.773.334-1.559.639-2.353.909.044 1.228.08 2.455.065 3.679 0 .333-.012.666-.025 1a36.051 36.051 0 0 1-4.142 15.443c-2.62 4.954-4.609 9.031-4.833 14.711 10.692-.061 20.861 8.128 23.081 18.588.505 2.38.954 5.272 3.2 6.216 2.638 1.109 5.321-1.473 6.778-3.936a36.449 36.449 0 0 0 4.97-16.983c.129-3.135-.617-6.047-.778-9.121a15.855 15.855 0 0 1 2-7.566 14.16 14.16 0 0 1 4.309-5.194c2.2-1.63 4.867-2.6 6.928-4.412a11.074 11.074 0 0 0 3.7-7.467c.148-2.129-.325-4.3.136-6.385a32.36 32.36 0 0 1 1.673-4.3 13.338 13.338 0 0 0-.098-9.555z" class="cls-10" data-name="Path 403" transform="translate(-69.924 -231.179)"/>
        <path id="Path_404" d="M175.824 285.641a69.074 69.074 0 0 0 .888-6.942c.068-1.523.568-4.24-.017-5.662-.277-.672-1.675-1.4-2.06-1.667-.283 6.392-.734 12.521-3.259 18.4a146.43 146.43 0 0 1-15.207-3.333c-2.973-.826-2.009-2.018-1.558-4.726a58.245 58.245 0 0 0 .764-7.5 20.215 20.215 0 0 0-.464-5.223c-.124-.541-1.126-4.59-1.721-4.587a18.707 18.707 0 0 0-3.574.362 11.793 11.793 0 0 1 1.466 4.6c1.454 11.68-8.372 22.107-19.546 23.588.023.831.036 1.664.026 2.494 0 .333-.012.666-.025 1a36.051 36.051 0 0 1-4.142 15.443c-2.62 4.954-4.609 9.031-4.833 14.711 10.692-.061 20.861 8.128 23.081 18.588.505 2.38.954 5.272 3.2 6.216 2.638 1.109 8.033-1.906 9.49-4.368a34.442 34.442 0 0 0 4.757-16.522c.129-3.135-3.115-6.075-3.276-9.149a15.855 15.855 0 0 1 2-7.566 14.16 14.16 0 0 1 4.309-5.194c2.2-1.63 4.867-2.6 6.928-4.412a11.074 11.074 0 0 0 3.7-7.467 12.033 12.033 0 0 0-.494-4.831 7.441 7.441 0 0 1-.756-3.37c.063-.97.184-1.924.323-2.883z" class="cls-13" data-name="Path 404" transform="translate(-69.924 -228.803)"/>
        <path id="Path_405" d="M179.187 254.424a19.142 19.142 0 0 1-4.507 4.571c-.7.447-2.347.855-2.561 1.557-.271.888.843 2.653 1.3 3.352a14.491 14.491 0 0 0 3.633 3.635 16.172 16.172 0 0 0 4.717 2.512 6.768 6.768 0 0 0 5.458-.56 5.673 5.673 0 0 0 1.9-1.3c.368-.418.937-1.456.756-2.015-.089-.276-.23-.1-.5-.449-.354-1 .93-2.795 1.361-3.622a4.808 4.808 0 0 0-.493-6.266 37.243 37.243 0 0 0-2.528-2.758 21.363 21.363 0 0 0-2.4-2.19c-.643-.479-.826-3.419-1.684-3.346-.629.053-1.169 1.51-1.409 1.953a24.619 24.619 0 0 1-2.225 3.9c-.273.336-.545.68-.818 1.026z" class="cls-12" data-name="Path 405" transform="translate(-85.215 -223.599)"/>
        <path id="Path_406" d="M189.054 261.188a7.017 7.017 0 0 0 5.522 4.92c.35-.826.894-1.6 1.311-2.4a4.808 4.808 0 0 0-.493-6.266 37.243 37.243 0 0 0-2.528-2.758 23.931 23.931 0 0 0-2.1-1.946 9.783 9.783 0 0 0-1.712 8.45z" class="cls-15" data-name="Path 406" transform="translate(-90.356 -225.203)"/>
        <g id="Group_370" data-name="Group 370" transform="translate(90.871 19.026)">
            <path id="Path_407" d="M182.628 240.8a3.471 3.471 0 0 0-1.863-.357 3.29 3.29 0 0 0-2.653 2.034 3.6 3.6 0 0 0 .424 3.345 3.984 3.984 0 0 0 2.983 1.628 2.663 2.663 0 0 0 1.146-.153c1.12-.448 1.8-2.025 1.952-3.161a3.53 3.53 0 0 0-1.989-3.336z" class="cls-16" data-name="Path 407" transform="translate(-177.876 -240.427)"/>
            <path id="Path_408" d="M185.471 245.658a4.467 4.467 0 0 0-.855-1.33 2.561 2.561 0 0 0-2.06-.982 1.62 1.62 0 0 0-1.438 2c.5 1.707 2.325 2.09 3.83 1.587a5.389 5.389 0 0 0 .523-1.275z" class="cls-9" data-name="Path 408" transform="translate(-178.858 -241.325)"/>
            <path id="Path_409" d="M182.958 243.272l.013-.012a.124.124 0 0 0 .029-.1c-.041-.317-.693-.331-.928-.33a1.459 1.459 0 0 0-1.252.861c-.03.063.062.106.1.057a1.846 1.846 0 0 1 1.1-.624c.128 0 .651.011.738.129a.138.138 0 0 0 .19.028z" class="cls-17" data-name="Path 409" transform="translate(-178.784 -241.168)"/>
            <path id="Path_410" d="M183.144 246.081a1.49 1.49 0 0 0 0-1.157c-.035-.082-.157-.025-.139.055a1.9 1.9 0 0 1-.132 1 1.379 1.379 0 0 1-.392.635.927.927 0 0 0-.245.2.116.116 0 0 0 .095.176c.469.004.669-.543.813-.909z" class="cls-17" data-name="Path 410" transform="translate(-179.216 -241.803)"/>
        </g>
        <path id="Path_411" d="M191.129 235.782a11.6 11.6 0 0 1-6.168 1.32c-.312 3.182-.626 7.027.476 10.082a14.14 14.14 0 0 0 5.021 6.787c2.214 1.561 5.283 2.336 7.609.994a8.389 8.389 0 0 0 3.025-3.663 28.311 28.311 0 0 0 2.5-7.205c.42-2.087 1.1-4.988-.472-6.776a8.724 8.724 0 0 0-2.144-1.485 10.49 10.49 0 0 1-4.473-5.663 11.792 11.792 0 0 1-5.374 5.609z" class="cls-12" data-name="Path 411" transform="translate(-89.103 -218.234)"/>
        <path id="Path_412" d="M201.793 250.345a7.974 7.974 0 0 0 .206-1.222c.052-.71.2-1.414.263-2.125.064-.779.2-1.581.3-2.365.017-.129-.143-.189-.19-.055a12.986 12.986 0 0 0-.339 1.866c-.1.525-.17 1.082-.227 1.614-.064.6-.171 1.206-.279 1.8-.057.313-.1.767-.346.978a1.2 1.2 0 0 1-1.029.122c-.248-.057-.39.409-.142.457a1.5 1.5 0 0 0 1.464-.326 1.564 1.564 0 0 0 .319-.744z" class="cls-18" data-name="Path 412" transform="translate(-93.802 -222.659)"/>
        <path id="Path_413" d="M201.026 258.02c-.217.057-.287.255-.433.4a1.1 1.1 0 0 1-1 .383 1.453 1.453 0 0 1-.914-.526 3.937 3.937 0 0 1-.6-.93.105.105 0 0 0-.2.021 1.744 1.744 0 0 0 .46 1.085 1.833 1.833 0 0 0 .993.7 1.606 1.606 0 0 0 1.04-.052 1.269 1.269 0 0 0 .384-.279 2.975 2.975 0 0 0 .218-.219c.05-.062.09-.2.173-.227.234-.076.107-.416-.121-.356z" class="cls-19" data-name="Path 413" transform="translate(-93.181 -226.605)"/>
        <path id="Path_414" d="M208.492 245.072a4.115 4.115 0 0 1 .849.657.687.687 0 0 0 .223-.092.312.312 0 0 0 .129-.14.4.4 0 0 0-.058-.32 2.625 2.625 0 0 0-1.429-1.2 1.942 1.942 0 0 0-1.657-.059.489.489 0 0 0-.149.1.383.383 0 0 0-.064.346 9.9 9.9 0 0 1 2.156.708z" data-name="Path 414" transform="translate(-95.79 -222.43)"/>
        <path id="Path_415" d="M197.152 242.451a4.106 4.106 0 0 1 1.068.119.706.706 0 0 0 .142-.194.313.313 0 0 0 .037-.187.4.4 0 0 0-.216-.243 2.631 2.631 0 0 0-1.843-.278 1.939 1.939 0 0 0-1.445.811.477.477 0 0 0-.075.164.381.381 0 0 0 .126.328 9.928 9.928 0 0 1 2.206-.52z" data-name="Path 415" transform="translate(-92.236 -221.768)"/>
        <path id="Path_416" d="M197.38 247.294a.853.853 0 1 1-.354-1.154.853.853 0 0 1 .354 1.154z" class="cls-20" data-name="Path 416" transform="translate(-92.532 -223.134)"/>
        <path id="Path_417" d="M207.8 249.428a.723.723 0 1 1-.229-1.087.792.792 0 0 1 .229 1.087z" class="cls-20" data-name="Path 417" transform="translate(-95.823 -223.823)"/>
        <path id="Path_418" d="M193.412 248.512a1.173 1.173 0 0 0-1.046.8 1.022 1.022 0 0 0 .073.549 2.9 2.9 0 0 0 2.2 1.507c.964.215 3.163-.35 2.194-1.754-.56-.814-2.525-1.243-3.421-1.102z" class="cls-21" data-name="Path 418" transform="translate(-91.476 -223.889)"/>
        <path id="Path_419" d="M204.13 250.773a1.173 1.173 0 0 0-.993.866 1.027 1.027 0 0 0 .109.543 2.9 2.9 0 0 0 2.3 1.361c.976.151 3.133-.556 2.075-1.894-.621-.774-2.605-1.076-3.491-.876z" class="cls-22" data-name="Path 419" transform="translate(-94.805 -224.577)"/>
        <path id="Path_420" d="M216.256 317.405a.837.837 0 0 0 .411-.07.079.079 0 0 0-.04-.153 1.315 1.315 0 0 0-.4.113c-.048.033-.018.098.029.11z" class="cls-23" data-name="Path 420" transform="translate(-98.841 -245.102)"/>
        <path id="Path_421" d="M103.423 285.036A90.382 90.382 0 0 1 128.454 268c2.883-1.318 5.843-3.347 9.157-2.713 2.115.405 4.493 2.094 4.185 4.379-.32 2.37-2.2 4.722-3.653 6.515-5.931 7.337-13.61 13.006-21.669 17.8-3.825 2.275-8.122 5.308-12.352 6.726-3.576 1.2-7.705-3.517-7.249-7.008a8.052 8.052 0 0 1 1.351-3.284c1.401-2.156 3.376-3.629 5.199-5.379z" class="cls-12" data-name="Path 421" transform="translate(-61.981 -229.039)"/>
        <path id="Path_422" d="M143.949 265.283c-3.314-.634-6.274 1.395-9.157 2.713a90.312 90.312 0 0 0-17.429 10.5 13.569 13.569 0 0 1 1.888 1.381 31.905 31.905 0 0 1 4.193 4.514 49.223 49.223 0 0 1 4.5 6.366 72.7 72.7 0 0 0 16.54-14.58c1.449-1.793 3.333-4.144 3.653-6.515.306-2.286-2.073-3.974-4.188-4.379z" class="cls-14" data-name="Path 422" transform="translate(-68.319 -229.039)"/>
        <g id="Group_371" data-name="Group 371" transform="translate(70.367 56.23)">
            <path id="Path_423" d="M182.206 328.923c1.133-7.132 2.542-15.605 3.687-21.265a.989.989 0 0 0 .124.008c1.808-.018 23.474-7.211 23.772-7.014.225.149-5.5 18.44-8.751 28.139z" class="cls-7" data-name="Path 423" transform="translate(-158.709 -296.227)"/>
            <path id="Path_424" d="M183.18 328.388c.528-7.131 1.216-15.547 1.877-21.2a1.116 1.116 0 0 0 .124 0c1.8-.114 22.821-8.439 23.135-8.258.243.141-4.168 19.718-6.564 29.325z" class="cls-7" data-name="Path 424" transform="translate(-159.01 -295.697)"/>
            <path id="Path_425" d="M149.951 324.313s1.478-26.768 1.467-28.3c0-.37 22.8 10.481 24.584 10.72a1.016 1.016 0 0 0 .124.007c-.015 5.537-.321 13.7-.637 20.723z" class="cls-7" data-name="Path 425" transform="translate(-148.749 -294.794)"/>
            <path id="Path_426" d="M152.092 322.247c-.45-8.793 1.333-27.878 1.62-27.995.347-.14 22.283 11.8 24.04 12.137.032.006.075.01.124.013-.478 5.493-1.459 13.56-2.361 20.526z" class="cls-7" data-name="Path 426" transform="translate(-149.388 -294.251)"/>
            <path id="Path_427" d="M148.212 326.351c.959-7.994 1.2-27.689 1.239-27.69 6.046 2.436 26.216 8.43 27.6 9.289.077.048 22.652-7.039 23.772-7.014.261.006-5.154 17.343-8.446 27.23l-22.35 2.571z" class="cls-24" data-name="Path 427" transform="translate(-148.212 -295.613)"/>
            <path id="Path_428" d="M179.77 331.751s5.8-17.375 6.9-22.795a1.15 1.15 0 0 0 .124.008c1.807-.018 23.474-7.212 23.772-7.014.218.145-5.154 17.343-8.446 27.23z" class="cls-25" data-name="Path 428" transform="translate(-157.957 -296.627)"/>
        </g>
        <path id="Path_429" d="M187.142 217.718a3.533 3.533 0 0 1 1.538-3.5 8.1 8.1 0 0 1 3.807-1.255 4.647 4.647 0 0 1 1.467-.01 4.98 4.98 0 0 1 1.68.8c1.247.807 2.569 1.785 2.886 3.236a3.536 3.536 0 0 1-2.551 3.907c-2.775.798-7.959.293-8.827-3.178z" class="cls-11" data-name="Path 429" transform="translate(-89.845 -212.9)"/>
        <path id="Path_430" d="M163.968 328.3c-3.063-.648-6.15-1.148-9.22-1.751a25.166 25.166 0 0 0 3.009-.181c.263-.045 2.732-.81 2.75-.789a3.258 3.258 0 0 0-2.009-.87l-7.369-1.325c-1.572 0-3.141-.979-4.711-1.136a15.079 15.079 0 0 1-4.155-1.08c-1.587-.608-3.177-1.216-4.7-1.975-10.756-5.365-17.753-17.425-30.146-19.716-5.362-.992-13.88 1.809-9.49 8.63a16.416 16.416 0 0 0 4.84 4.384 147.294 147.294 0 0 0 20.541 11.379c4.909 2.292 9.744 4.761 14.8 6.723a58.13 58.13 0 0 0 7.842 2.475 24.631 24.631 0 0 0 8.352.2 5.655 5.655 0 0 0 4.455-2.9l.044-.068a1.3 1.3 0 0 1 .592-.578 1.367 1.367 0 0 1 .45-.055 35.888 35.888 0 0 0 4.245-.308c.249-.032.543-.1.628-.339.135-.377-.362-.642-.748-.72z" class="cls-12" data-name="Path 430" transform="translate(-61.943 -239.574)"/>
        <path id="Path_431" d="M80.884 380.246a14.931 14.931 0 0 1 1.959 10.854c-.938 4.289-7.924 7.877-11.568 9.971 24.64.471 54.536-.115 75.214-1.443.592-3.278 1.421-6.512 2.125-9.767.058-.269-5.532-.766-5.476-1.034-17.531-5.494-27.529-12.045-46.3-12.455-4.97-.109-9.97.129-14.89-.585a61.546 61.546 0 0 1-8.8-2.08 18.324 18.324 0 0 1 7.736 6.539z" class="cls-9" data-name="Path 431" transform="translate(-54.087 -262.558)"/>
        <path id="Path_432" d="M99.04 377.029a74.518 74.518 0 0 0-9.877-.852c-4.97-.109-9.97.129-14.89-.585a49.559 49.559 0 0 1-5.362-1.112c-1.375-.357-2.835-1.23-4.234-1.376-3.238-.338-7.814 2.027-10.686 3.343-2.8 1.28-6.112 3.257-6.915 6.406-.928 3.641-1.083 8.121.777 11.492a13.18 13.18 0 0 0 7.786 5.814 39.166 39.166 0 0 0 9.845 1.308l25.157 1.187a4.985 4.985 0 0 0 3.178-.561c1.642-1.175-.015-3.115-.064-4.607a41.353 41.353 0 0 1 .472-7.164 31.531 31.531 0 0 1 4.813-13.293z" class="cls-13" data-name="Path 432" transform="translate(-46.408 -262.361)"/>
        <path id="Path_433" d="M183.727 398.037q.28-.031.558-.058c6.6-.637 13.512-1.646 20.144-1.646 6.23-.509 12.462-1.019 18.662-1.813 5.263-.675 10.619-1.595 15.265-4.157a6.82 6.82 0 0 0 3.23-3.072 7.894 7.894 0 0 0 .393-3.091 20.053 20.053 0 0 0-.395-4.659 12.725 12.725 0 0 0-6.666-7.891 25.668 25.668 0 0 0-10.273-2.483 25.833 25.833 0 0 0-2.535-.051 12.741 12.741 0 0 0-6.61 1.734c-.943.621-1.521 1.494-2.521 1.906a26.029 26.029 0 0 1-3.883.768 83.245 83.245 0 0 0-15.321 5.272c-2.5 1.118-28.746 14.649-28.419 15.342a50.437 50.437 0 0 0 1.609 6.28c5.696-.075 11.175-1.767 16.762-2.381z" class="cls-12" data-name="Path 433" transform="translate(-83.139 -261.136)"/>
        <path id="Path_434" d="M256.576 384.252c.464-4.961-3.316-10.368-7.591-12.6a25.668 25.668 0 0 0-10.273-2.483 25.833 25.833 0 0 0-2.535-.051c-4.131.139-7.824 2.141-11.713 3.37a127.735 127.735 0 0 1-13.559 3.481c7.182 4.137 11.237 12.5 11.728 20.776.027.453.111 1 .534 1.168a1.164 1.164 0 0 0 .443.05 71.145 71.145 0 0 0 22.858-4.193c3.062-1.1 6.165-2.5 8.24-5.012a8.146 8.146 0 0 0 1.868-4.506z" class="cls-13" data-name="Path 434" transform="translate(-97.205 -261.136)"/>
        <path id="Path_435" d="M212.947 344.376c.476.871.977 1.728 1.513 2.566 2.222 3.474 5.655 6.845 9.77 6.574a6.877 6.877 0 0 0 5.619-10.089c-1.367-2.571-3.715-5.23-5.433-7.562-2.647-3.593-6.284-6.764-9.324-10.037s-4.326-7.223-7.177-10.517a2.185 2.185 0 0 0-.377-.095.815.815 0 0 0-.943.339.635.635 0 0 1-.082.079.541.541 0 0 1-.158.2c.106.42.195.76.227.845.242.643 1.336 1.6.876 2.234-1.735-1.734-3.025-4.3-4.495-6.3a3.435 3.435 0 0 0-1.892-1.554c-.594 1.742.986 3.69.357 5.418a1.683 1.683 0 0 0-1.765 1.394 4.051 4.051 0 0 0 .421 2.41 15.153 15.153 0 0 0 1.846 3.163c1.088 1.433 1.8 2.985 2.777 4.492a50.408 50.408 0 0 1 2.79 5.027c1.869 3.781 3.43 7.717 5.45 11.413z" class="cls-9" data-name="Path 435" transform="translate(-93.717 -243.214)"/>
        <path id="Path_436" d="M113.415 388.321c-.3 4.722-.527 9.559.823 14.095a24.363 24.363 0 0 1-6.994 1.18 1.757 1.757 0 0 1-1-.187 1.821 1.821 0 0 1-.621-1.257q-.68-3.514-1.228-7.052c-.915-5.91-1.518-12.146.672-17.711.7-1.778 1.8-3.564 3.58-4.271a7.407 7.407 0 0 1 3.252-.335c1.264.086 3.976.247 4.829 1.366.918 1.2-.306 2.552-.9 3.647-1.751 3.254-2.18 6.887-2.413 10.525z" class="cls-26" data-name="Path 436" transform="translate(-64.058 -262.262)"/>
        <path id="Path_437" d="M213.6 379.467a26.852 26.852 0 0 1 6.452 20.034 19.12 19.12 0 0 0 5.769.367 1.612 1.612 0 0 0 1.192-.471 1.635 1.635 0 0 0 .219-1.036c-.147-7.555-2.965-14.8-6.3-21.585-.908-1.848-2.119-3.88-4.141-4.27a6.934 6.934 0 0 0-4.2 1.024c-1.125.547-3.569 1.513-2.781 2.937.575 1.041 2.905 1.988 3.79 3z" class="cls-27" data-name="Path 437" transform="translate(-96.82 -262.168)"/>
        <g id="Group_372" data-name="Group 372" transform="translate(83.238 35.282)">
            <path id="Path_438" d="M168.146 285.568l-.594-.115c1.035-5.372 1.867-11.13.953-16.835a8.428 8.428 0 0 0-1.671-4.272l.453-.4a8.965 8.965 0 0 1 1.816 4.578c.927 5.796.088 11.616-.957 17.044z" class="cls-28" data-name="Path 438" transform="translate(-166.833 -263.945)"/>
        </g>
        <g id="Group_374" data-name="Group 374" transform="translate(79.024 51.108)">
            <path id="Path_440" d="M163.452 295.136a2.434 2.434 0 0 1-1.406-.436c-.9-.638-1.326-1.824-1.308-3.625a22.8 22.8 0 0 1 .442-4.234l.593.119a22.175 22.175 0 0 0-.429 4.121c-.017 1.588.328 2.611 1.053 3.126a1.859 1.859 0 0 0 2 .066 3.747 3.747 0 0 0 1.246-1.68l.547.259a4.3 4.3 0 0 1-1.476 1.936 2.417 2.417 0 0 1-1.262.348z" class="cls-28" data-name="Path 440" transform="translate(-160.737 -286.841)"/>
        </g>
        <g id="Group_375" data-name="Group 375" transform="translate(101.405 44.305)">
            <path id="Path_441" d="M194.817 297.344a1.8 1.8 0 0 1-.92-.241 1.638 1.638 0 0 1-.74-1.031 1.388 1.388 0 0 1 .177-1.09l.5.335a.79.79 0 0 0-.091.62 1.021 1.021 0 0 0 .457.646 1.454 1.454 0 0 0 1.524-.14 2.67 2.67 0 0 0 .937-1.453 8.882 8.882 0 0 0 .254-1.723l.013-.16c.166-2.009.459-4.036.743-6a66.8 66.8 0 0 0 .876-8.764 2.328 2.328 0 0 0-.158-1.071l.538-.276a2.79 2.79 0 0 1 .225 1.353 67.3 67.3 0 0 1-.882 8.845c-.282 1.951-.574 3.969-.739 5.959l-.013.16a9.318 9.318 0 0 1-.275 1.841 3.262 3.262 0 0 1-1.168 1.779 2.192 2.192 0 0 1-1.258.411z" class="cls-28" data-name="Path 441" transform="translate(-193.117 -276.999)"/>
        </g>
        <g id="Group_376" data-name="Group 376" transform="translate(54.473 97.464)">
            <path id="Path_442" d="M148.1 378.345a8.147 8.147 0 0 1-2.022-3.647 40.359 40.359 0 0 0-4.366-9.418 27.379 27.379 0 0 0-16.495-10.78l.136-.59a27.993 27.993 0 0 1 16.858 11.032 40.881 40.881 0 0 1 4.435 9.553 7.71 7.71 0 0 0 1.852 3.4z" class="cls-28" data-name="Path 442" transform="translate(-125.217 -353.908)"/>
        </g>
        <g id="Group_379" data-name="Group 379" transform="translate(91.661 98.298)">
            <path id="Path_445" d="M179.582 374.405l-.563-.223a22.736 22.736 0 0 0 1.149-7.19c.049-.946.1-1.926.2-2.881.31-3.1 1.378-7.179 4.715-9l.29.531c-3.268 1.782-4.161 6.107-4.4 8.527-.094.941-.144 1.913-.194 2.853a23.188 23.188 0 0 1-1.197 7.383z" class="cls-28" data-name="Path 445" transform="translate(-179.019 -355.114)"/>
        </g>
        <g id="Group_380" data-name="Group 380" transform="translate(14.782 110.774)">
            <path id="Path_446" d="M67.955 376.73l-.162-.583a74.077 74.077 0 0 1 13.852-2.859 27.6 27.6 0 0 1 13.95 2.1l-.254.549a27 27 0 0 0-13.646-2.046 73.545 73.545 0 0 0-13.74 2.839z" class="cls-28" data-name="Path 446" transform="translate(-67.793 -373.165)"/>
        </g>
        <g id="Group_386" data-name="Group 386" transform="translate(119.343 70.452)">
            <path id="Path_452" d="M219.312 318.336l-.243-.554a97.521 97.521 0 0 0 6.141-2.954l.281.536a99.904 99.904 0 0 1-6.179 2.972z" class="cls-28" data-name="Path 452" transform="translate(-219.069 -314.828)"/>
        </g>
        <g id="Group_391" data-name="Group 391" transform="translate(149.649 116.408)">
            <path id="Path_457" d="M269 392.7a6.257 6.257 0 0 1-5.484-3.983 10.94 10.94 0 0 1 .111-7.4l.574.19a10.358 10.358 0 0 0-.125 6.985 5.507 5.507 0 0 0 5.391 3.578l.073.6a4.533 4.533 0 0 1-.54.03z" class="cls-28" data-name="Path 457" transform="translate(-262.915 -381.316)"/>
        </g>
        <g id="Group_393" data-name="Group 393" transform="translate(114.17 71.878)">
            <path id="Path_459" d="M228.349 343.649a546.067 546.067 0 0 1-16.764-26.449l.52-.309a542.553 542.553 0 0 0 16.746 26.419z" class="cls-28" data-name="Path 459" transform="translate(-211.585 -316.891)"/>
        </g>
        <g id="Group_396" data-name="Group 396" transform="translate(99.325 .362)">
            <path id="Path_462" d="M192.973 220.805a2.635 2.635 0 0 1-1.9-.861 3.493 3.493 0 0 1-.964-2.545 5.683 5.683 0 0 1 2.349-3.976l.38.471a5.264 5.264 0 0 0-2.125 3.536 2.921 2.921 0 0 0 .8 2.1 2.038 2.038 0 0 0 1.461.673h.015v.605z" class="cls-28" data-name="Path 462" transform="translate(-190.107 -213.424)"/>
        </g>
        <g id="Group_397" data-name="Group 397" transform="translate(101.859 2.061)">
            <path id="Path_463" d="M196.422 221.477a3.939 3.939 0 0 1-2.428-1.98 3.5 3.5 0 0 1-.115-2.1c.225-1.067.769-1.395 1.184-1.483.907-.191 1.939.6 2.559 1.46a9.523 9.523 0 0 1 1.249 3.012l-.582.165a8.922 8.922 0 0 0-1.159-2.825c-.588-.82-1.406-1.332-1.942-1.221-.434.091-.629.6-.717 1.015a2.915 2.915 0 0 0 .08 1.742 3.386 3.386 0 0 0 2.087 1.652z" class="cls-28" data-name="Path 463" transform="translate(-193.774 -215.882)"/>
        </g>
        <g id="Group_398" data-name="Group 398" transform="translate(105.65 1.422)">
            <path id="Path_464" d="M200.274 216.675a1.18 1.18 0 0 0-1.015-1.114l.059-.6a1.792 1.792 0 0 1 1.561 1.715z" class="cls-28" data-name="Path 464" transform="translate(-199.259 -214.958)"/>
        </g>
        <path id="Path_465" d="M166.923 397.119c.063 1.873.132 3.746.2 5.619l.148 4.187c.063 1.781.3 2.188-1.649 2.47a71.066 71.066 0 0 0-23.772 7.675c-1.467.793-4.083 2.67-5.763 2.187a3.753 3.753 0 0 1 1.084-2.057 101.743 101.743 0 0 1 15.492-14.978 6.117 6.117 0 0 0 .489-.417l.006-.581.327.2a1.384 1.384 0 0 0 .266-.963 2.237 2.237 0 0 1-.588.144v-.265l-.789.055c-.625-.5-.685-1.749-.732-2.633 1.23-.312 15.27-.968 15.281-.643z" class="cls-29" data-name="Path 465" transform="translate(-74.1 -269.76)"/>
    </g>
    <g id="Group_425" data-name="Group 425" transform="translate(169.279 118.224)">
        <path id="Path_466" d="M354.858 275.819c-2.171-4.306-8.627-1.037-11.737 1.92-3.073 2.922-5.076 6.718-7.008 10.42-.7 1.349-40.926 56.463-47.239 64.064a1.952 1.952 0 0 0-.028.351.736.736 0 0 0 .442.791.57.57 0 0 1 .083.061.5.5 0 0 1 .2.111c.358-.156.649-.286.72-.327.62-.358 1.286-1.355 2.032-1.318a10.491 10.491 0 0 0-2.022 2.357.981.981 0 0 0-.167.605 1.013 1.013 0 0 0 .405.563 13.709 13.709 0 0 0 2.526 1.694 3.863 3.863 0 0 0 2.345.564 4.311 4.311 0 0 0 1.842-.97c2.8-2.152 5.236-4.694 7.989-6.9q4.264-3.412 8.373-7.013 7.66-6.712 14.646-13.979c2.221-2.311 9.984-10.271 11.861-12.5a73.8 73.8 0 0 0 6.716-9.415c3.234-5.358 6.663-10.734 8.452-16.564 1.511-4.91 1.711-10.271-.431-14.515z" class="cls-9" data-name="Path 466" transform="translate(-189.169 -237.577)"/>
        <path id="Path_467" d="M318.66 397.35a49.881 49.881 0 0 1 .79-11.407c1.4-6.6 4.468-12.716 6.831-19.024-1.919-.786-3.783-1.582-5.536-2.148l-.47-.151a128.486 128.486 0 0 0-19.268-4.737 177.49 177.49 0 0 0-24.344-1.64c-10.325-.178-20.75-.177-30.994 1.428.126-.194.256-.387.393-.576q-.462.327-.918.66c-.43.07-.859.141-1.288.216-.312.055-.621.115-.93.177a21.758 21.758 0 0 0-1.976.977 10.132 10.132 0 0 0-4.728 5.351c-3.964 2.669-8.944 4.155-13.311 6.047-18.107 7.841-31.887 20.211-48.606 28.682 2.37 6.152.738 11.862 5.624 10.772 10.1-2.254 24.493-5.641 34.145-9.352 11.663-4.484 23.1-9.527 34.417-14.839q5.981-.677 11.956-1.392c5.1-.607 10.191-1.214 15.282-1.856a31.45 31.45 0 0 1 14.634 1.072c10.461 3.018 21.034 7.311 28.427 15.41a95.569 95.569 0 0 1-.13-3.67z" class="cls-9" data-name="Path 467" transform="translate(-153.798 -263.647)"/>
        <path id="Path_468" d="M331.088 366.919c-1.919-.786-3.783-1.582-5.536-2.148l-.47-.151a128.486 128.486 0 0 0-19.268-4.737 177.384 177.384 0 0 0-24.344-1.639c-10.325-.179-20.75-.178-30.994 1.427.126-.195.256-.387.393-.576q-.462.327-.918.66c-.43.07-.859.141-1.288.216-.312.055-.621.115-.93.177a21.758 21.758 0 0 0-1.976.977 10.132 10.132 0 0 0-4.728 5.351c-3.964 2.669-8.944 4.155-13.311 6.047-13.993 6.06-25.584 14.245-37.844 21.562a58.674 58.674 0 0 0 2.773 8.942c.85 2.191 1.8 4.342 2.795 6.469a205.66 205.66 0 0 0 23.441-6.87c11.663-4.484 23.1-9.527 34.417-14.839q5.981-.677 11.956-1.392c5.1-.607 10.191-1.214 15.282-1.856a31.45 31.45 0 0 1 14.634 1.072c10.461 3.018 21.034 7.311 28.427 15.41a97.843 97.843 0 0 1-.129-3.671 49.881 49.881 0 0 1 .79-11.407c1.397-6.602 4.465-12.716 6.828-19.024z" class="cls-30" data-name="Path 468" transform="translate(-158.606 -263.648)"/>
        <path id="Rectangle_99" d="M0 0h5.746v21.623H0z" class="cls-31" data-name="Rectangle 99" transform="rotate(-19.708 383.606 -15.23)"/>
        <path id="Path_469" d="M387.887 221.426a1.054 1.054 0 0 1 .393.751 16.042 16.042 0 0 1 .294 2.7 8.382 8.382 0 0 1 .967-2.855c.066-.12.208-.254.315-.169a.237.237 0 0 1 .066.165 5.488 5.488 0 0 1-.581 3.122 8.266 8.266 0 0 1 1.526-2.21.749.749 0 0 1 .384-.253.526.526 0 0 1 .547.51 1.279 1.279 0 0 1-.279.779c-.572.85-2.1 2.464-3.154 1.467a3.378 3.378 0 0 1-.615-1.725c-.033-.167-.101-2.422.137-2.282z" class="cls-32" data-name="Path 469" transform="translate(-219.701 -221.42)"/>
        <path id="Path_470" d="M335.02 251.533a.763.763 0 0 1-.107.01c-1.56-.006-20.3-7.658-20.56-7.441s9 36.165 9.608 36.877c.541.63 12.659 6.278 16.191 7.924-.172-1.46-3.122-25.31-5.132-37.37z" class="cls-7" data-name="Path 470" transform="translate(-197.045 -228.423)"/>
        <path id="Path_471" d="M336.681 251.01a.737.737 0 0 1-.108 0c-1.556-.111-19.747-9-20.017-8.8s6.565 36.685 7.126 37.436c.5.665 12.212 7.11 15.625 8.987-.073-1.463-1.426-25.456-2.626-37.623z" class="cls-7" data-name="Path 471" transform="translate(-197.724 -227.841)"/>
        <path id="Path_472" d="M363.1 239.94c-.289-.17-17.438 10.591-18.974 10.866a.854.854 0 0 1-.108.008c.082 10.634 1 30.173 1.286 36.049.03.014.06.025.091.04a.626.626 0 0 1 .306.292c.279.167.551.346.826.52 4.094-2.858 13.066-9.151 13.448-9.795.478-.807 3.419-37.807 3.125-37.98z" class="cls-7" data-name="Path 472" transform="translate(-206.207 -227.138)"/>
        <path id="Path_473" d="M360.947 238.461c-.3-.151-16.692 11.731-18.207 12.107a.8.8 0 0 1-.106.016c.846 11.33 3.317 32.739 3.806 36.882.169.1.342.195.521.282 3.5-2.8 13.044-10.476 13.4-11.184.427-.835.891-37.951.586-38.103z" class="cls-7" data-name="Path 473" transform="translate(-205.779 -226.682)"/>
        <path id="Path_474" d="M374.253 275.819c-2.171-4.306-8.627-1.037-11.737 1.92-3.073 2.922-5.076 6.718-7.008 10.42-.128.245-1.561 2.265-3.856 5.451a69.392 69.392 0 0 1 9.232 6.38 24.186 24.186 0 0 1 5.606 6.485c3.157-5.218 6.454-10.465 8.2-16.141 1.503-4.91 1.703-10.271-.437-14.515z" class="cls-33" data-name="Path 474" transform="translate(-208.564 -237.577)"/>
        <g id="Group_400" data-name="Group 400" transform="translate(152.943 34.713)">
            <path id="Path_475" d="M381.751 309.517l-.035-.093z" class="cls-7" data-name="Path 475" transform="translate(-370.791 -283.309)"/>
            <path id="Path_476" d="M396.066 272.358q1.112.04 2.212.126-1.099-.084-2.212-.126z" class="cls-7" data-name="Path 476" transform="translate(-375.222 -271.863)"/>
            <path id="Path_477" d="M389.009 272.346q1.167-.036 2.321-.043-1.153.005-2.321.043z" class="cls-7" data-name="Path 477" transform="translate(-373.043 -271.846)"/>
            <path id="Path_478" d="M380.437 306.184l-.017-.039z" class="cls-7" data-name="Path 478" transform="translate(-370.391 -282.296)"/>
            <path id="Path_479" d="M392.564 272.3q1.137 0 2.261.033-1.125-.033-2.261-.033z" class="cls-7" data-name="Path 479" transform="translate(-374.141 -271.845)"/>
            <path id="Path_480" d="M388.435 352.441a51.286 51.286 0 0 0 4.531 3.42c1.967 1.29 5.409 3.534 7.746 1.967 2.033-1.362 3.757-6.9 4.86-9.089 1.7-3.38 3.318-6.808 4.8-10.294a104.853 104.853 0 0 0 7.015-22.4c2.609-14.606 0-30.028-13.361-38.889-7.926-5.254-19.336-6.577-28.448-4.719a8.665 8.665 0 0 0-3.524 1.346 8.255 8.255 0 0 0-2.64 4.673c-3.558 13.455 3.235 27.02 1.545 40.553-.445 3.562-.523 7.2-.709 10.808a16.472 16.472 0 0 1-.329 2.946 14.137 14.137 0 0 1-3.415 5.813 2.265 2.265 0 0 0-.563.9 1.64 1.64 0 0 0 1.232 1.75 6.44 6.44 0 0 0 2.338.082 12.169 12.169 0 0 1 5.868 1.163 24.47 24.47 0 0 1 4.564 3.095l4.4 3.5c1.393 1.101 2.731 2.252 4.09 3.375z" class="cls-9" data-name="Path 480" transform="translate(-365.91 -271.642)"/>
            <path id="Path_481" d="M388.435 352.441a51.286 51.286 0 0 0 4.531 3.42c1.967 1.29 5.409 3.534 7.746 1.967 2.033-1.362 3.757-6.9 4.86-9.089 1.7-3.38 3.318-6.808 4.8-10.294a104.853 104.853 0 0 0 7.015-22.4c2.609-14.606 0-30.028-13.361-38.889-7.926-5.254-19.336-6.577-28.448-4.719a8.665 8.665 0 0 0-3.524 1.346 8.255 8.255 0 0 0-2.64 4.673c-3.558 13.455 3.235 27.02 1.545 40.553-.445 3.562-.523 7.2-.709 10.808a16.472 16.472 0 0 1-.329 2.946 14.137 14.137 0 0 1-3.415 5.813 2.265 2.265 0 0 0-.563.9 1.64 1.64 0 0 0 1.232 1.75 6.44 6.44 0 0 0 2.338.082 12.169 12.169 0 0 1 5.868 1.163 24.47 24.47 0 0 1 4.564 3.095l4.4 3.5c1.393 1.101 2.731 2.252 4.09 3.375z" class="cls-34" data-name="Path 481" transform="translate(-365.91 -271.642)"/>
            <path id="Path_482" d="M404.024 277.157c-7.926-5.254-19.336-6.577-28.448-4.719l-.394.084c.75.509 1.51 1 2.3 1.444 1.5-.021 3-.227 4.489-.339a16.732 16.732 0 0 1 6.925.825 20.5 20.5 0 0 1 4.245 1.922 7.5 7.5 0 0 1 3.325 5.346c.132 2.266-1.183 4.348-2.077 6.316a19.466 19.466 0 0 0-1.7 6.671c-.081 1.152-.14 2.48-1.057 3.182a2.659 2.659 0 0 1-2.432.238 14.87 14.87 0 0 1-2.26-1.161c-2.779-1.494-10.033-2.665-10.768 2a19.3 19.3 0 0 0 0 5.3c.544 4.016 2.39 7.728 4.1 11.35a47.5 47.5 0 0 0 2.861 4.552 25.331 25.331 0 0 1 2.7 4.988 14.54 14.54 0 0 1 1.042 4.713 3.459 3.459 0 0 1-2.026 3.188 4.769 4.769 0 0 1-2.732-.084 23.947 23.947 0 0 1-11.741-7.132c-.288 1.153.089 3.045-.156 4.208-.191.906-.082 1.8-.3 2.716a14.132 14.132 0 0 1-3.415 5.813 2.265 2.265 0 0 0-.563.9 1.64 1.64 0 0 0 1.232 1.75 6.44 6.44 0 0 0 2.338.082 12.169 12.169 0 0 1 5.868 1.163 24.47 24.47 0 0 1 4.564 3.095l4.4 3.5c1.39 1.1 2.728 2.256 4.087 3.379a51.286 51.286 0 0 0 4.531 3.42c1.967 1.29 5.409 3.534 7.746 1.967 2.033-1.362 3.757-6.9 4.86-9.089 1.7-3.38 3.318-6.808 4.8-10.294a104.865 104.865 0 0 0 7.015-22.4c2.61-14.612.006-30.034-13.359-38.894z" class="cls-33" data-name="Path 482" transform="translate(-365.91 -271.642)"/>
            <path id="Path_483" d="M382.944 312.909l-.06-.181z" class="cls-7" data-name="Path 483" transform="translate(-371.152 -284.329)"/>
            <path id="Path_484" d="M381.323 308.429q-.419-1.121-.879-2.227.456 1.105.879 2.227z" class="cls-7" data-name="Path 484" transform="translate(-370.398 -282.314)"/>
            <path id="Path_485" d="M380.208 305.649q-.232-.556-.474-1.109.243.553.474 1.109z" class="cls-7" data-name="Path 485" transform="translate(-370.179 -281.801)"/>
            <path id="Path_486" d="M382.539 311.749q-.367-1.1-.772-2.191.405 1.089.772 2.191z" class="cls-7" data-name="Path 486" transform="translate(-370.807 -283.35)"/>
            <path id="Path_487" d="M383.314 314.058q-.166-.535-.343-1.068.565 1.714 1.035 3.454c.122.453.248.912.373 1.378-.279-1.244-.671-2.495-1.065-3.764z" class="cls-7" data-name="Path 487" transform="translate(-371.179 -284.41)"/>
            <path id="Path_488" d="M399.343 272.546l-.077-.006.076.007z" class="cls-7" data-name="Path 488" transform="translate(-376.211 -271.919)"/>
            <path id="Path_489" d="M388.871 272.368h.1z" class="cls-7" data-name="Path 489" transform="translate(-373 -271.865)"/>
            <path id="Path_490" d="M392.367 272.3z" class="cls-7" data-name="Path 490" transform="translate(-374.08 -271.846)"/>
            <path id="Path_491" d="M395.835 272.35l.16.006z" class="cls-7" data-name="Path 491" transform="translate(-375.151 -271.86)"/>
        </g>
        <g id="Group_401" data-name="Group 401" transform="translate(96.316 85.626)">
            <path id="Path_492" d="M284.157 352.722a6.214 6.214 0 0 1 0-2.9 6.322 6.322 0 0 1 4.357-4.525l.178.633a5.571 5.571 0 0 0-2.288 9.43l-.449.48a6.268 6.268 0 0 1-1.798-3.118z" class="cls-28" data-name="Path 492" transform="translate(-283.983 -345.301)"/>
        </g>
        <path id="Path_493" d="M166.334 414.215c-.644.218-1.389.516-1.7.567a16.862 16.862 0 0 1-3.265.205c-3.943-.124-7.242-1.239-9.831-4.262q-2.106-2.458-4.088-5.02a3.735 3.735 0 0 0-.954-.965 1.245 1.245 0 0 0-1.292-.064 1.445 1.445 0 0 0-.55.943c-.4 1.864 5.841 13.642 5.841 13.642 3.463 5.662 5.55 8.7 5.55 8.7l1.261 2.387-1.4.608.05.1 1.232 2.6a160.454 160.454 0 0 0 15.005-7.076z" class="cls-28" data-name="Path 493" transform="translate(-144.637 -277.963)"/>
        <path id="Path_494" d="M321.8 391.651a9.676 9.676 0 0 0 3.106.933 29.421 29.421 0 0 0 10.159-.334 20.594 20.594 0 0 0 11.47-6.74 26.638 26.638 0 0 0 2.465-3.682 32.406 32.406 0 0 0 2.571-5.427 10.462 10.462 0 0 0 .712-4.127c-.213-3.135-2.945-5.575-4.991-7.664q-3.876-3.956-8.035-7.62a137.1 137.1 0 0 0-33.737-21.852 153.825 153.825 0 0 0-14.763-5.778q-3.247-1.088-6.532-2.063-1.5-.45-3.012-.883c-.664-.191-2.051-.894-2.719-.774a13.207 13.207 0 0 0-4.434 1.671c-3.191 1.9-34.375 33.721-47.073 47.106-5.257 5.54-15.242 13.764-15.13 13.87.076.07.023.206.126.207 1.818.026 2.493 6.741 4.535 6.305 17.56-3.749 37.12-15.4 50.284-27.614 3.47-3.221 6.729-6.7 10.587-9.454a105.107 105.107 0 0 0 32.942 17.3c.18.057.82 3.439.961 3.846A23.474 23.474 0 0 0 313 382.69a23.87 23.87 0 0 0 5.1 6.31 17.485 17.485 0 0 0 3.7 2.651z" class="cls-12" data-name="Path 494" transform="translate(-165.396 -253.599)"/>
        <path id="Path_495" d="M360.55 374.955a6.344 6.344 0 0 0 .2-2.638c-.334-1.5-2.181-2.716-3.157-3.784a150.891 150.891 0 0 0-11.748-11.544 137.1 137.1 0 0 0-33.737-21.852 153.825 153.825 0 0 0-14.763-5.778q-3.247-1.088-6.532-2.063-1.5-.45-3.012-.883c-.664-.191-2.051-.894-2.719-.774a13.207 13.207 0 0 0-4.434 1.671c-3.191 1.9-34.375 33.721-47.073 47.106q-.189.2-.386.4c2.945 4.525 6.2 8.838 9.581 13.053a126.665 126.665 0 0 0 30.62-20.687c3.47-3.221 6.729-6.7 10.587-9.454 9.838 7.661 20.53 14.07 32.425 17.813a21.51 21.51 0 0 0 6.169 11.658c3.555 3.582 7.448 5.906 12.518 6.32a31 31 0 0 0 10.773-.82 21.921 21.921 0 0 0 5-2.081 17.034 17.034 0 0 0 4.216-3.381 22.438 22.438 0 0 0 4.774-9.743c.182-.694.479-1.615.698-2.539z" class="cls-31" data-name="Path 495" transform="translate(-171.983 -253.599)"/>
        <path id="Path_496" d="M204.13 409.914c-.521.438-1.106.986-1.377 1.147a16.908 16.908 0 0 1-2.966 1.38c-3.717 1.32-7.2 1.483-10.707-.389q-2.856-1.524-5.636-3.187a3.726 3.726 0 0 0-1.239-.552 1.245 1.245 0 0 0-1.226.411 1.445 1.445 0 0 0-.169 1.078c.306 1.882 10.408 10.578 10.408 10.578 5.287 4.013 8.337 6.078 8.337 6.078l2.045 1.765-1.085 1.076.082.073 2.1 1.973a160.4 160.4 0 0 0 11.4-12.055z" class="cls-28" data-name="Path 496" transform="translate(-155.798 -279.126)"/>
        <path id="Path_497" d="M397.749 261.491A15.268 15.268 0 0 0 399 265.3c.686 1.275 1.783 2.32 1.172 3.873a6.506 6.506 0 0 1-1.431 1.986 17.734 17.734 0 0 1-5.453 4.348 9.225 9.225 0 0 1-5.261.686 8.418 8.418 0 0 1-4.676-2.472 6.016 6.016 0 0 1-1.52-2.646 4.2 4.2 0 0 1 .053-2.265c.267-.838.762-.917 1.583-1.085a2.843 2.843 0 0 1 .93-.088.657.657 0 0 1 .037-.255 10.91 10.91 0 0 0 0-3.829 4.692 4.692 0 0 1 3-5.351 36.455 36.455 0 0 1 3.368-1.41 20.841 20.841 0 0 1 3.023-.959c.765-.162 2.13-2.692 2.861-2.277.676.384.251 4.511 1.063 7.935z" class="cls-12" data-name="Path 497" transform="translate(-217.844 -231.33)"/>
        <path id="Path_498" d="M385.735 267.057a3.543 3.543 0 0 0 3.271.951c1.765-.471 3.1-2.124 4.107-3.549a39.373 39.373 0 0 0 3.6-6.6c.536-1.192 1.02-2.4 1.483-3.626-.066-.355-.157-.594-.3-.673-.731-.415-2.1 2.115-2.861 2.277a20.758 20.758 0 0 0-3.023.959 36.261 36.261 0 0 0-3.368 1.409 4.692 4.692 0 0 0-3 5.351 13.644 13.644 0 0 1 .091 3.501z" class="cls-9" data-name="Path 498" transform="translate(-219.06 -231.33)"/>
        <path id="Path_499" d="M380.135 224.61a8.3 8.3 0 0 0-4.35 2.465 11.285 11.285 0 0 0-1.173 13.836l3.8-3.9c2.358-2.425 4.763-4.916 6.157-8 .5-1.105.932-2.507 0-3.436-1.045-1.046-3.075-1.215-4.434-.965z" class="cls-32" data-name="Path 499" transform="translate(-215.088 -222.373)"/>
        <path id="Path_500" d="M393.219 232.477c1.6 1.462 2.044 3.788 2.119 5.951a19.978 19.978 0 0 1-1.812 9.407 14.069 14.069 0 0 1-6.736 6.756c-2.414 1.078-5.5 1.242-7.474-.48a8.2 8.2 0 0 1-2.208-4.077 27.661 27.661 0 0 1-.8-11.082 12.375 12.375 0 0 1 .74-3.083 8.945 8.945 0 0 1 4.554-4.625c3.346-1.537 8.798-1.344 11.617 1.233z" class="cls-12" data-name="Path 500" transform="translate(-216.106 -224.153)"/>
        <path id="Path_501" d="M395.148 238.177a8.127 8.127 0 0 0-.831 1.774c-1.315 3.8-1.679 9.681-6.634 10.542a8.248 8.248 0 0 1-3.727-.4 4.232 4.232 0 0 0-1.639-.232 6.33 6.33 0 0 0-1.98.762 7.843 7.843 0 0 1-3.289 1.059c.066.263.135.527.209.789.426 1.508-1.5 5.463-.31 6.5 1.975 1.722 10.734 1.078 13.148 0 2.971-1.328 2.169-5.785 3.58-8.695a19.978 19.978 0 0 0 1.812-9.407 13.548 13.548 0 0 0-.339-2.692z" class="cls-28" data-name="Path 501" transform="translate(-216.254 -226.595)"/>
        <path id="Path_502" d="M382.569 250.589a5.341 5.341 0 0 1-.189-.99c-.044-.581-.185-1.148-.236-1.73-.055-.637-.182-1.286-.274-1.923-.015-.105.14-.167.185-.061a8.779 8.779 0 0 1 .312 1.51 13.025 13.025 0 0 1 .205 1.311c.056.487.156.98.255 1.458.053.253.086.623.326.778a1.33 1.33 0 0 0 1 .017c.241-.066.375.305.133.365a1.586 1.586 0 0 1-1.419-.15 1.066 1.066 0 0 1-.298-.585z" class="cls-17" data-name="Path 502" transform="translate(-217.896 -228.958)"/>
        <path id="Path_503" d="M383.562 257.421c.22 0 .335.169.509.267a1.076 1.076 0 0 0 1.036.111 1.417 1.417 0 0 0 .729-.726 3.839 3.839 0 0 0 .332-1.029.1.1 0 0 1 .194-.031 1.7 1.7 0 0 1-.16 1.139 1.788 1.788 0 0 1-.762.906 1.573 1.573 0 0 1-.993.213 1.232 1.232 0 0 1-.433-.166 2.739 2.739 0 0 1-.261-.152c-.063-.046-.137-.169-.22-.171-.233-.006-.202-.361.029-.361z" class="cls-35" data-name="Path 503" transform="translate(-218.36 -231.084)"/>
        <path id="Path_504" d="M385.857 241.421a.456.456 0 0 1 .292-.221 3.325 3.325 0 0 1 2.168.006 2.233 2.233 0 0 1 1.516 1.088.482.482 0 0 1 .057.184c.007.173-.154.314-.323.395a2.009 2.009 0 0 1-1.347-.02 7.578 7.578 0 0 1-1.564-.548 1.365 1.365 0 0 1-.791-.681.309.309 0 0 1-.008-.203z" class="cls-36" data-name="Path 504" transform="translate(-219.123 -227.473)"/>
        <path id="Path_505" d="M375.439 242.346a.386.386 0 0 1 .1-.3 2.562 2.562 0 0 1 1.539-.969 1.894 1.894 0 0 1 1.61.16.453.453 0 0 1 .131.117.433.433 0 0 1-.035.451 1.553 1.553 0 0 1-.964.59 6.046 6.046 0 0 1-1.378.279 1.182 1.182 0 0 1-.9-.172.306.306 0 0 1-.103-.156z" class="cls-36" data-name="Path 505" transform="translate(-215.908 -227.457)"/>
        <path id="Path_506" d="M387.126 247.609a.832.832 0 1 0 .556-1.037.832.832 0 0 0-.556 1.037z" class="cls-20" data-name="Path 506" transform="translate(-219.508 -229.176)"/>
        <path id="Path_507" d="M377.436 247.075a.705.705 0 1 0 .423-1 .773.773 0 0 0-.423 1z" class="cls-20" data-name="Path 507" transform="translate(-216.513 -229.027)"/>
        <path id="Path_508" d="M393.041 238.414a12.978 12.978 0 0 0 3.629.348.515.515 0 0 1 .359.073.468.468 0 0 1 .131.308c.264 1.92-1.631 4.026-.717 5.86 1.266-.207 1.69-1.746 2.414-2.659.861-1.087 1.868-2.049 2.788-3.085 1.555-1.751 2.936-3.965 2.6-6.282-.333-2.286-2.255-4.01-4.258-5.163a19.808 19.808 0 0 0-9.922-2.6c-1.731.007-7.33.078-7.587 2.639-.1 1 .84 2.372 1.317 3.2a14.95 14.95 0 0 0 9.246 7.361z" class="cls-28" data-name="Path 508" transform="translate(-218.08 -222.592)"/>
        <path id="Path_509" d="M389.876 249.985c.43.158.858.505.852.963a1 1 0 0 1-.173.512 2.829 2.829 0 0 1-2.393 1.03c-.964.024-2.962-.931-1.77-2.094.689-.672 2.651-.715 3.484-.411z" class="cls-22" data-name="Path 509" transform="translate(-219.178 -230.185)"/>
        <path id="Path_510" d="M376.38 251.68q-.141-.994-.21-2a4.639 4.639 0 0 1 2.857-.113 1.086 1.086 0 0 1 .8.908.944.944 0 0 1-.162.482 2.842 2.842 0 0 1-3.288.72z" class="cls-22" data-name="Path 510" transform="translate(-216.135 -230.059)"/>
        <path id="Path_511" d="M384.939 231.124a13.615 13.615 0 0 0 1.35 1.987 15.46 15.46 0 0 0 1.662 1.9 14.375 14.375 0 0 0 3.657 2.853 11.43 11.43 0 0 0 4.348 1.33 14.954 14.954 0 0 0 1.983-.037c.874-.055 1.689-.3 2.554-.406.085-.011.139.12.048.153a11.633 11.633 0 0 1-4.719.574 12.673 12.673 0 0 1-2.359-.484 13.2 13.2 0 0 1-2.244-.982 11.247 11.247 0 0 1-1.769-1.251 13.3 13.3 0 0 1-1.718-1.561 16.069 16.069 0 0 1-1.521-1.735 10.773 10.773 0 0 1-1.456-2.26c-.04-.105.136-.185.184-.081z" class="cls-23" data-name="Path 511" transform="translate(-218.785 -224.402)"/>
        <path id="Path_512" d="M400.857 243.752a2.564 2.564 0 0 0 .265.079.717.717 0 0 0 .243-.017c.1-.023.136.135.044.169-.19.068-.507.1-.641-.089a.092.092 0 0 1 .089-.142z" class="cls-23" data-name="Path 512" transform="translate(-223.727 -228.316)"/>
        <g id="Group_402" data-name="Group 402" transform="translate(176.347 15.128)">
            <path id="Path_513" d="M401.885 243.411a2.83 2.83 0 0 1 1.542.007 2.673 2.673 0 0 1 1.8 2.038 2.926 2.926 0 0 1-.862 2.6 3.235 3.235 0 0 1-2.633.832 2.166 2.166 0 0 1-.89-.3 3.332 3.332 0 0 1-1.062-2.826 2.871 2.871 0 0 1 2.105-2.351z" class="cls-16" data-name="Path 513" transform="translate(-399.77 -243.307)"/>
            <path id="Path_514" d="M399.785 246.957a3.621 3.621 0 0 1 .89-.927 2.082 2.082 0 0 1 1.8-.46 1.316 1.316 0 0 1 .833 1.824 2.289 2.289 0 0 1-3.3.665 4.376 4.376 0 0 1-.223-1.102z" class="cls-9" data-name="Path 514" transform="translate(-399.775 -243.986)"/>
            <path id="Path_515" d="M403.094 245.468l-.008-.012a.1.1 0 0 1-.008-.083c.083-.245.605-.155.792-.118a1.188 1.188 0 0 1 .864.883c.013.055-.066.075-.091.029a1.5 1.5 0 0 0-.776-.67c-.1-.024-.521-.093-.608-.012a.113.113 0 0 1-.156-.008z" class="cls-17" data-name="Path 515" transform="translate(-400.789 -243.894)"/>
            <path id="Path_516" d="M402.885 247.728a1.213 1.213 0 0 1 .184-.922c.041-.059.129 0 .1.066a1.54 1.54 0 0 0-.051.817 1.12 1.12 0 0 0 .213.567.758.758 0 0 1 .165.2.094.094 0 0 1-.1.125c-.382-.072-.455-.54-.511-.853z" class="cls-17" data-name="Path 516" transform="translate(-400.725 -244.38)"/>
        </g>
        <path id="Path_517" d="M333.011 251.694c1.4.006 18.561-7.609 23.764-10.3.046 0 3.336 35.745 3.455 35.514.042-.016-22.043 12.146-22.043 12.146s-15.483-7.172-16.128-7.924c-.61-.712-9.868-36.656-9.609-36.877s19 7.435 20.561 7.441z" class="cls-24" data-name="Path 517" transform="translate(-196.457 -227.588)"/>
        <path id="Path_518" d="M365.066 284.215c-.6-1.187-1.207-2.365-1.785-3.559a20.886 20.886 0 0 0-1.57-2.972 4.948 4.948 0 0 0-2.378-1.972 4.359 4.359 0 0 0-3.526.627.267.267 0 0 1-.162.036c-1.659 1.164-1.21 3.407-.72 5.157.409 1.46 1.179 3.018 1.179 4.558 0 2.174-1.266 4.105-.919 6.324a16.82 16.82 0 0 0 1.308 4.255l11.2-6.171a38.815 38.815 0 0 0-2.627-6.283z" class="cls-37" data-name="Path 518" transform="translate(-209.436 -238.136)"/>
        <path id="Path_519" d="M333.118 252.959a.778.778 0 0 1-.107.01c-1.561-.006-20.3-7.658-20.56-7.441s9 36.165 9.609 36.877c.54.63 12.659 6.279 16.19 7.924-.172-1.46-3.123-25.309-5.132-37.37z" class="cls-25" data-name="Path 519" transform="translate(-196.457 -228.863)"/>
        <path id="Path_520" d="M358.877 281.476a1.379 1.379 0 0 0 .135-.873 1.473 1.473 0 0 0-.232-.425 38.423 38.423 0 0 1-2.369-3.881c-.126-.236-.247-.536-.094-.756.24-.346.778-.079 1.089.206 2.464 2.26 4.816 4.632 7.246 6.926a26.918 26.918 0 0 1-1.711-2.728c-.124-.256-.991-2.877-1.022-2.879a3.479 3.479 0 0 1 2 1.206l29.518 28.768-.417-6.058c-.292-4.234-.571-8.587.712-12.633 1.3-4.1 6.586-11.71 11.246-8.794 4.592 2.874 6.651 9.541 8.072 14.678 1.686 6.1 1.5 12.531 1.5 18.859 0 3.892.057 7.85-1.02 11.59s-3.5 7.307-7.117 8.74c-3.475 1.376-7.517.566-10.763-1.286s-5.842-4.641-8.328-7.432q-7.809-8.769-14.882-18.159-4.71-6.253-9.076-12.755c-1.445-2.152-3-4.3-4.274-6.558a6.043 6.043 0 0 1-.243-5.675z" class="cls-12" data-name="Path 520" transform="translate(-209.983 -238.082)"/>
        <path id="Path_521" d="M408.963 306.172c3.644-2.028 7.863-2.747 11.909-3.545 2.509-.495 5.017-.9 7.559-1.189.912-.1 1.828-.223 2.743-.307a38.937 38.937 0 0 0-1.013-4.966c-1.516-5.486-3.716-12.605-8.621-15.675-4.975-3.114-10.623 5.018-12.01 9.391-1.37 4.321-1.072 8.97-.76 13.492z" class="cls-34" data-name="Path 521" transform="translate(-226.121 -239.447)"/>
        <path id="Rectangle_100" d="M0 0h5.524v20.788H0z" class="cls-38" data-name="Rectangle 100" transform="rotate(-38 203.852 -23.43)"/>
        <g id="Group_403" data-name="Group 403" transform="translate(182.529 61.008)">
            <path id="Path_522" d="M409.006 315.788l-.291-.59a20.165 20.165 0 0 1 4.181-1.355c6.389-1.565 13-3.183 19.624-4.159l.1.65c-6.6.971-13.188 2.586-19.563 4.146a19.684 19.684 0 0 0-4.051 1.308z" class="cls-28" data-name="Path 522" transform="translate(-408.715 -309.684)"/>
        </g>
        <g id="Group_406" data-name="Group 406" transform="translate(174.04 107.045)">
            <path id="Path_525" d="M396.631 388.63a15.471 15.471 0 0 1 3.385-12.341l.5.423a14.8 14.8 0 0 0-3.24 11.81z" class="cls-28" data-name="Path 525" transform="translate(-396.432 -376.289)"/>
        </g>
        <g id="Group_408" data-name="Group 408" transform="translate(148.366 47.989)">
            <path id="Path_527" d="M404 339.482c-4.693 0-8.889-2.947-10.348-4.1a58.393 58.393 0 0 1-6.21-5.941 162.153 162.153 0 0 1-6.021-6.765c-4.263-5.05-8.229-10.294-11.208-14.3q-.552-.741-1.108-1.483a114.726 114.726 0 0 1-9.812-16.047l1.742 2.463c2.266 4.731 5.485 9.03 8.6 13.189q.557.743 1.109 1.485c2.974 4 6.933 9.23 11.184 14.266a158.63 158.63 0 0 0 6 6.737 57.926 57.926 0 0 0 6.139 5.877c1.879 1.484 8.48 6.072 14.529 2.813 5.1-2.748 6.062-9.187 6.34-13.791.048-.785.539-5.383.57-6.086l.2 3.829c-.031.706-.066 1.506-.114 2.3-.288 4.761-1.294 11.426-6.685 14.331a10.2 10.2 0 0 1-4.907 1.223z" class="cls-28" data-name="Path 527" transform="translate(-359.289 -290.849)"/>
        </g>
        <g id="Group_409" data-name="Group 409" transform="translate(188.463 89.907)">
            <path id="Path_528" d="M423.6 354.354a9.618 9.618 0 0 1-6.3-2.367l.435-.492a8.925 8.925 0 0 0 6.723 2.158 3.755 3.755 0 0 0 2.631-1.2l.525.395a4.268 4.268 0 0 1-3.088 1.462 9.057 9.057 0 0 1-.926.044z" class="cls-28" data-name="Path 528" transform="translate(-417.3 -351.495)"/>
        </g>
        <g id="Group_415" data-name="Group 415" transform="translate(109.248 101.007)">
            <path id="Path_532" d="M337.365 387.094A62.376 62.376 0 0 1 302.693 368l.485-.444a61.714 61.714 0 0 0 34.3 18.893z" class="cls-28" data-name="Path 532" transform="translate(-302.693 -367.554)"/>
        </g>
        <g id="Group_418" data-name="Group 418" transform="translate(163.269 35.749)">
            <path id="Path_535" d="M389.444 282.292a9.951 9.951 0 0 1-6.723-2.5 5.207 5.207 0 0 1-1.87-3.573 2.954 2.954 0 0 1 2.506-3.076l.045.656a2.315 2.315 0 0 0-1.894 2.4 4.564 4.564 0 0 0 1.659 3.106 9.627 9.627 0 0 0 9.623 1.746 11.931 11.931 0 0 0 6.94-7.235l.619.221a12.6 12.6 0 0 1-7.336 7.632 10.468 10.468 0 0 1-3.569.623z" class="cls-28" data-name="Path 535" transform="translate(-380.85 -273.141)"/>
        </g>
        <g id="Group_419" data-name="Group 419" transform="translate(147.522 58.259)">
            <path id="Path_536" d="M367.255 314.542a31.147 31.147 0 0 0-9.187-8.268l.332-.567a31.809 31.809 0 0 1 9.384 8.444z" class="cls-28" data-name="Path 536" transform="translate(-358.068 -305.707)"/>
        </g>
        <g id="Group_420" data-name="Group 420" transform="translate(148.134 44.901)">
            <path id="Path_537" d="M362.784 291.19a15.888 15.888 0 0 1-3.831-4.483l.571-.326a15.223 15.223 0 0 0 3.67 4.3z" class="cls-28" data-name="Path 537" transform="translate(-358.953 -286.381)"/>
        </g>
        <g id="Group_421" data-name="Group 421" transform="translate(148.89 42.71)">
            <path id="Path_538" d="M364.258 288.486a26.335 26.335 0 0 1-4.212-4.91l.547-.364A25.727 25.727 0 0 0 364.7 288z" class="cls-28" data-name="Path 538" transform="translate(-360.046 -283.212)"/>
        </g>
        <g id="Group_422" data-name="Group 422" transform="translate(182.601 57.218)">
            <path id="Path_539" d="M409.023 310.537l-.2-.626a197.7 197.7 0 0 1 21.558-5.711l.132.644a196.778 196.778 0 0 0-21.49 5.693z" class="cls-28" data-name="Path 539" transform="translate(-408.819 -304.201)"/>
        </g>
        <g id="Group_424" data-name="Group 424" transform="translate(155.953 61.111)">
            <path id="Path_541" d="M371.591 338.733l-.649-.1a79.424 79.424 0 0 0-.677-28.662l.643-.133a80.071 80.071 0 0 1 .683 28.895z" class="cls-28" data-name="Path 541" transform="translate(-370.265 -309.834)"/>
        </g>
    </g>
</svg>
